<?xml version="1.0" encoding="UTF-8"?><svg xmlns="http://www.w3.org/2000/svg" viewBox="0 0 678.01 427.4"><defs><style>.cls-1{fill:#fff;}.cls-2{fill:#fafafa;}.cls-3{opacity:.6;}.cls-4{fill:#f5f5f5;}.cls-5{fill:#455a64;}.cls-6{fill:#ae7461;}.cls-7{fill:#ffbf9d;}.cls-8{fill:#e0e0e0;}.cls-9{fill:#ff9a6c;}.cls-10{fill:#ff725e;}.cls-11{opacity:.3;}.cls-12{fill:#ebebeb;}.cls-13{fill:#263238;}</style></defs><g id="Background_Complete"><g><g><g><path class="cls-12" d="m30.78,364.75c.05-8.75,5.77-14.34,5.77-14.34,1.75,7.2-5.77,14.34-5.77,14.34Z"/><path class="cls-12" d="m39.17,360.69c8.04-3.44,15.46-.43,15.46-.43-5.9,4.47-15.46.43-15.46.43Z"/><path class="cls-12" d="m40.12,356.03c-1.4-6.76,2.1-12.01,2.1-12.01,2.53,5.27-2.1,12.01-2.1,12.01Z"/><path class="cls-12" d="m7.7,339.2c12.25,3.26,18.83,13.92,18.83,13.92-10.47,0-18.83-13.92-18.83-13.92Z"/><path class="cls-12" d="m27.27,344.23c-.64-13.21,12.27-28.16,12.27-28.16-1.95,16.4-12.27,28.16-12.27,28.16"/><path class="cls-12" d="m27.21,306.61c.55,10.71-4.64,18.92-4.64,18.92-1.82-8.5,4.64-18.92,4.64-18.92Z"/><path class="cls-12" d="m22.23,333.44c-9.66-1.04-14.91-10.64-14.91-10.64,11.68,3.27,14.91,10.64,14.91,10.64Z"/><path class="cls-12" d="m1.4,373.83c7.38-4.7,15.18-2.92,15.18-2.92-5.1,5.37-15.18,2.92-15.18,2.92Z"/><path class="cls-12" d="m26.43,378.16c-1.83,5.05-6.49,7.31-6.49,7.31.41-4.46,6.49-7.31,6.49-7.31Z"/><path class="cls-12" d="m25.19,376.74c-5.49,3.38-11.55,2.06-11.55,2.06,3.72-3.87,11.55-2.06,11.55-2.06Z"/><path class="cls-8" d="m30.12,394.52s-.01-.07-.02-.2c0-.16,0-.34-.01-.58,0-.54,0-1.28,0-2.21,0-.96,0-2.14-.02-3.5-.02-1.36-.03-2.92-.1-4.63-.08-3.43-.33-7.52-.68-12.04-.39-4.52-.94-9.49-1.7-14.67-1.53-10.37-3.61-19.65-5.29-26.31-.84-3.33-1.56-6.02-2.08-7.87-.24-.9-.44-1.61-.58-2.14-.06-.22-.1-.41-.14-.56-.03-.13-.04-.19-.03-.19,0,0,.03.06.08.18.05.15.11.33.18.55.16.52.38,1.22.65,2.12.57,1.84,1.33,4.51,2.21,7.84,1.75,6.65,3.89,15.93,5.42,26.32.76,5.19,1.3,10.17,1.67,14.7.33,4.54.54,8.63.59,12.07.05,1.72.04,3.28.03,4.64,0,1.37-.02,2.54-.05,3.5-.03.93-.06,1.67-.08,2.21-.01.23-.02.42-.03.58,0,.13-.02.2-.03.2Z"/><path class="cls-8" d="m12.4,366.56c.07-.1,3.97,2.46,8.72,5.71,4.75,3.25,8.54,5.97,8.47,6.07s-3.97-2.46-8.72-5.71c-4.75-3.25-8.54-5.97-8.47-6.07Z"/><path class="cls-8" d="m29.59,367.97s.19-.25.6-.66c.48-.46,1.06-1.02,1.74-1.67,1.56-1.47,3.58-3.36,5.8-5.44,2.23-2.09,4.24-3.98,5.81-5.44.69-.64,1.27-1.19,1.76-1.65.42-.39.66-.59.68-.57.02.02-.18.26-.56.69-.38.43-.95,1.02-1.66,1.75-1.43,1.45-3.45,3.42-5.72,5.54-2.27,2.12-4.36,4.01-5.89,5.35-.77.67-1.39,1.21-1.83,1.57-.44.36-.69.55-.71.53Z"/><path class="cls-12" d="m0,360.3s9.98-.19,14.2,7.67c0,0-8.51.28-14.2-7.67Z"/><path class="cls-12" d="m13.63,356.29s8.13,5.8,6.83,14.62c0,0-7-4.85-6.83-14.62Z"/><path class="cls-12" d="m56.43,342.01s-3.21,11.17-13.4,13.18c0,0,2.6-9.57,13.4-13.18Z"/><path class="cls-12" d="m9.2,300.48s12.73,8.31,11.32,21.81c0,0-10.96-6.94-11.32-21.81Z"/></g><path class="cls-8" d="m51.58,374.36s-.28.26-.83.66c-.55.4-1.33.99-2.28,1.75-1.9,1.5-4.42,3.73-6.9,6.48-2.47,2.76-4.41,5.5-5.7,7.55-.65,1.03-1.15,1.87-1.49,2.46-.34.59-.54.91-.57.89-.03-.01.12-.36.42-.97.29-.62.76-1.49,1.38-2.54,1.23-2.1,3.15-4.9,5.64-7.68,2.5-2.77,5.07-4.98,7.03-6.43.98-.73,1.79-1.29,2.38-1.64.58-.36.91-.55.92-.52Z"/><path class="cls-12" d="m40.5,382.65c-1.62-8.6,2.92-15.18,2.92-15.18,1.37,9.47-2.92,15.18-2.92,15.18Z"/><path class="cls-12" d="m49.06,377.98c5.49-3.22,11.11-1.72,11.11-1.72-6.15,3.26-11.11,1.72-11.11,1.72Z"/></g><g><polygon class="cls-12" points="11.56 395.56 16.34 426.95 44.09 426.95 50.53 396.01 11.56 395.56"/><g><path class="cls-2" d="m46.65,415.68c0,.09-7.11.16-15.88.16s-15.88-.07-15.88-.16,7.11-.16,15.88-.16,15.88.07,15.88.16Z"/><path class="cls-2" d="m46.76,414.14c0,.09-7.16.16-15.99.16s-15.99-.07-15.99-.16,7.16-.16,15.99-.16,15.99.07,15.99.16Z"/><path class="cls-2" d="m46.7,412.39c0,.09-7.16.16-15.99.16s-15.99-.07-15.99-.16,7.16-.16,15.99-.16,15.99.07,15.99.16Z"/><path class="cls-2" d="m19.52,425.16c-.09.02-.47-1.75-.85-3.95-.38-2.2-.62-3.99-.53-4.01s.47,1.75.85,3.95c.38,2.2.62,3.99.53,4.01Z"/><path class="cls-2" d="m21.41,424.83c-.09,0-.2-1.73-.34-3.86-.14-2.13-.27-3.86-.18-3.87.09-.01.36,1.71.51,3.85.15,2.14.11,3.88.02,3.88Z"/><path class="cls-2" d="m24.85,424.83c-.09.02-.47-1.75-.72-3.95-.26-2.21-.3-4.01-.21-4.01.09,0,.28,1.78.53,3.98.26,2.2.49,3.98.4,3.99Z"/><path class="cls-2" d="m27.27,424.99c-.09,0-.31-1.79-.38-4.02-.07-2.23.04-4.04.12-4.03.09,0,.13,1.8.2,4.02.07,2.22.15,4.02.06,4.03Z"/><path class="cls-2" d="m31.54,424.83c-.09,0-.22-1.7-.29-3.81-.07-2.11-.06-3.82.03-3.82.09,0,.22,1.7.29,3.81.07,2.11.06,3.82-.03,3.82Z"/><path class="cls-2" d="m34.67,424.99c-.09,0-.15-1.77-.13-3.95.02-2.18.11-3.94.2-3.94.09,0,.15,1.77.13,3.95-.02,2.18-.11,3.94-.19,3.94Z"/><path class="cls-2" d="m37.6,424.57c-.09,0,.02-1.85.24-4.12.22-2.27.47-4.1.56-4.09.09,0-.02,1.85-.24,4.12-.22,2.27-.47,4.1-.56,4.09Z"/><path class="cls-2" d="m41.37,424.16c-.09-.01.05-1.59.47-3.51.41-1.91.95-3.41,1.03-3.38.09.03-.3,1.55-.71,3.45-.41,1.9-.69,3.45-.79,3.44Z"/></g><path class="cls-12" d="m8.37,389.34v5.87c0,1.28,1.04,2.31,2.31,2.31h40.19c1.28,0,2.31-1.04,2.31-2.31v-5.87H8.37Z"/><polygon class="cls-8" points="11.86 397.53 12.19 399.4 49.28 402.04 50.22 397.53 11.86 397.53"/></g></g><g><rect class="cls-4" x="531.62" y="58.69" width="31.41" height="62.26"/><rect class="cls-4" x="564.24" y="58.69" width="33.94" height="62.26"/><rect class="cls-4" x="564.24" y="125.3" width="33.94" height="60.16"/><polygon class="cls-4" points="602.52 57.61 638.26 57.61 638.26 2.38 639.47 2.38 639.47 57.61 668.56 57.61 668.56 1.16 602.52 1.16 602.52 57.61"/><rect class="cls-4" x="639.47" y="58.69" width="29.09" height="62.26"/><rect class="cls-4" x="639.47" y="125.3" width="29.09" height="60.16"/><rect class="cls-4" x="531.62" y="125.3" width="31.41" height="60.16"/><rect class="cls-4" x="602.52" y="125.3" width="35.74" height="60.16"/><rect class="cls-4" x="531.62" y="186.53" width="31.41" height="54.21"/><rect class="cls-4" x="639.47" y="186.53" width="29.09" height="54.21"/><polygon class="cls-4" points="563.03 57.61 563.03 2.38 564.24 2.38 564.24 57.61 598.17 57.61 598.17 1.16 531.62 1.16 531.62 57.61 563.03 57.61"/><rect class="cls-4" x="602.52" y="186.53" width="35.74" height="54.21"/><rect class="cls-4" x="564.24" y="186.53" width="33.94" height="54.21"/><rect class="cls-4" x="602.52" y="58.69" width="35.74" height="62.26"/></g><g><rect class="cls-8" x="425.86" y="15.86" width="77.49" height="128.27"/><rect class="cls-12" x="423.28" y="15.86" width="77.49" height="128.27"/><rect class="cls-1" x="426.58" y="18.46" width="70.89" height="123.06"/><g><rect class="cls-12" x="440.08" y="34.45" width="43.59" height="91.08"/><path class="cls-8" d="m440.08,93.3c-.1-8.51,7.55-16.81,15.97-18,4.02-.57,8.29.23,12.04-1.31,6.7-2.75,8.83-11.65,15.58-14.29l.31,65.83h-43.9v-32.23Z"/></g></g></g><g id="Floor"><path class="cls-13" d="m678.01,425.54c0,.14-150.06.26-335.13.26s-335.16-.12-335.16-.26,150.03-.26,335.16-.26,335.13.12,335.13.26Z"/></g><g id="Stage"><g><rect class="cls-6" x="235.3" y="353.49" width="355.64" height="72.04"/><rect class="cls-6" x="210.61" y="349.42" width="405.01" height="8.28"/><path d="m615.66,357.68c0,.14-90.3.26-201.66.26s-201.68-.12-201.68-.26,90.28-.26,201.68-.26,201.66.12,201.66.26Z"/><path d="m591.24,402.26c0,.14-79.48.26-177.51.26s-177.52-.12-177.52-.26,79.46-.26,177.52-.26,177.51.12,177.51.26Z"/><path d="m590.56,378.74c0,.14-79.48.26-177.51.26s-177.52-.12-177.52-.26,79.46-.26,177.52-.26,177.51.12,177.51.26Z"/></g></g><g id="Plant"><g><g><path class="cls-13" d="m298.23,326.36s-3.47-23.89-3.18-37.78-.02-29.53-.02-29.53h1.6s-1.08,27.58.1,44.22c1.18,16.62,4.29,23.09,4.29,23.09h-2.78"/><path class="cls-5" d="m308.57,232.17c-.32-.82-.72-1.67-1.46-2.14-1.02-.64-2.35-.38-3.48.02-4.84,1.71-9.13,10.73-11.08,15.47l6.42,21.64c11.59-10.75,13.6-24.86,9.6-35Z"/><path class="cls-13" d="m306.74,230.91s-.02.1-.09.28c-.08.21-.19.47-.31.79-.28.68-.68,1.67-1.15,2.9-.95,2.46-2.15,5.89-3.23,9.76-1.07,3.87-1.81,7.44-2.27,10.03-.23,1.3-.4,2.35-.51,3.08-.06.34-.1.62-.14.84-.03.19-.06.29-.07.29,0,0,0-.1.01-.3.02-.22.05-.5.09-.84.08-.73.22-1.79.43-3.09.41-2.61,1.12-6.19,2.2-10.07,1.08-3.88,2.32-7.32,3.31-9.76.5-1.22.92-2.2,1.23-2.87.15-.31.27-.57.36-.77.08-.17.13-.26.14-.26Z"/><path class="cls-5" d="m296.12,272.36c-6.02-3.33-9.57-9.58-9.9-16.45-.23-4.8,1.24-9.51,2.92-14.02.15-.39.32-.81.68-1.02.5-.29,1.14-.03,1.64.26,4.37,2.49,7.02,7.24,8.43,12.07.94,3.22,1.42,6.61.99,9.93-.43,3.32-2.33,6.93-4.76,9.24"/><path class="cls-13" d="m296.12,272.36s-.02-.1-.02-.29c0-.22,0-.49-.02-.83,0-.72-.03-1.76-.09-3.05-.12-2.57-.45-6.12-1.12-10-.67-3.88-1.48-7.35-2.08-9.86-.29-1.23-.54-2.23-.71-2.97-.08-.33-.14-.6-.19-.81-.04-.19-.06-.28-.05-.29,0,0,.04.09.1.27.06.21.14.47.23.8.2.69.47,1.7.79,2.95.64,2.5,1.48,5.97,2.15,9.86.67,3.89.98,7.45,1.04,10.03.04,1.29.04,2.34,0,3.06-.01.34-.02.61-.03.83-.01.19-.02.29-.03.29Z"/><g class="cls-11"><path d="m296.12,272.36c-6.02-3.33-9.57-9.58-9.9-16.45-.23-4.8,1.24-9.51,2.92-14.02.15-.39.32-.81.68-1.02.5-.29,1.14-.03,1.64.26,4.37,2.49,7.02,7.24,8.43,12.07.94,3.22,1.42,6.61.99,9.93-.43,3.32-2.33,6.93-4.76,9.24"/></g><path class="cls-5" d="m302.91,308.91c5.92,1.3,10.8,5.48,16.52,7.51,3.78,1.34,8.06,1.82,11.08,4.46-.72-1.83-2.44-3.05-4.11-4.09-4.7-2.94-9.73-5.34-14.97-7.15-2.69-.93-5.61-1.7-8.35-.94"/><path class="cls-5" d="m294.35,314.19c-7.42-.12-15.23-6.44-22.62-6.81,7.73-2.5,18.79-.46,22.62,6.81"/><path class="cls-5" d="m297.25,296.39c3.77-1.36,7.9-1.42,11.86-.81s7.78,1.88,11.58,3.15c-.38-2.57-2.47-4.51-4.42-6.22-1.47-1.29-2.96-2.59-4.65-3.57-1.69-.99-3.62-1.66-5.58-1.57-2.36.1-4.61,1.32-6.15,3.1-1.55,1.78-2.38,3.58-2.64,5.93"/><path class="cls-5" d="m282.02,288.2c-4.67-3.99-11.74-3.6-17.88-3.46,9.44,4.51,19.61,10.7,27.74,17.28.25-4.34-3.95-8.79-9.85-13.83Z"/><g class="cls-11"><path d="m282.02,288.2c-4.67-3.99-11.74-3.6-17.88-3.46,9.44,4.51,19.61,10.7,27.74,17.28.25-4.34-3.95-8.79-9.85-13.83Z"/></g><path class="cls-5" d="m299.35,282.69c2.35-1.57,4.72-3.06,7.18-4.17s4.75-2.9,7.13-4.18c3.08-1.67,5.75-3.98,8.57-6.05,2.83-2.07,5.93-3.93,9.39-4.48-2.82-.58-5.77-.26-8.54.49-2.78.76-5.42,1.95-8.04,3.13-3.64,1.64-7.35,3.32-10.33,5.99s-5.67,5.29-5.36,9.28"/><path class="cls-13" d="m319.3,314.19s-.09-.03-.23-.1c-.18-.09-.39-.2-.65-.34-.56-.3-1.36-.74-2.37-1.25-.5-.26-1.05-.54-1.66-.82-.6-.3-1.24-.59-1.93-.88-1.37-.59-2.9-1.2-4.57-1.59-1.66-.41-3.32-.5-4.76-.12-.73.18-1.41.35-2.02.6-.61.25-1.15.54-1.63.84-.95.6-1.61,1.23-2.05,1.69-.43.46-.64.74-.66.73,0,0,.04-.08.13-.22.09-.14.24-.34.45-.58.41-.48,1.07-1.15,2.02-1.78.48-.31,1.03-.62,1.65-.88.62-.27,1.32-.45,2.04-.64,1.47-.4,3.19-.32,4.88.1,1.69.4,3.23,1.03,4.61,1.63.69.3,1.33.6,1.93.91.6.29,1.15.58,1.65.85,1,.53,1.79,1,2.33,1.32.25.15.45.28.62.38.14.09.21.14.21.15Z"/><path class="cls-13" d="m288.81,310.51s.17.03.46.14c.29.1.71.28,1.21.53,1,.49,2.31,1.33,3.54,2.51,1.23,1.19,2.12,2.46,2.65,3.44.27.49.46.9.57,1.19.12.29.17.45.15.46-.04.02-.32-.61-.89-1.55-.57-.94-1.47-2.18-2.68-3.34-1.21-1.16-2.48-2.01-3.45-2.54-.96-.53-1.6-.78-1.59-.83Z"/><path class="cls-13" d="m272.4,287.82s.11.02.32.09c.23.08.52.19.89.32.4.15.86.32,1.4.52.55.2,1.14.5,1.81.8,2.67,1.21,6.23,3.25,9.66,6.15,1.69,1.47,3.22,2.97,4.5,4.44,1.28,1.47,2.36,2.85,3.2,4.05.85,1.2,1.49,2.2,1.93,2.89.21.33.38.59.51.8.11.18.17.28.16.29,0,0-.08-.08-.21-.26-.13-.17-.32-.43-.55-.77-.47-.67-1.13-1.66-2-2.84-.86-1.19-1.95-2.55-3.23-4-1.28-1.45-2.81-2.93-4.49-4.4-3.41-2.88-6.93-4.94-9.57-6.19-.66-.31-1.25-.62-1.79-.83-.53-.21-.99-.4-1.38-.56-.36-.15-.65-.27-.87-.36-.2-.09-.3-.14-.3-.14Z"/><path class="cls-13" d="m308.38,292.22s-.22-.01-.59-.08c-.2-.04-.43-.08-.68-.13-.26-.05-.57-.05-.91-.09-1.33-.1-3.28.01-5.1,1.01-.92.46-1.69,1.09-2.32,1.72-.64.62-1.13,1.28-1.49,1.84-.74,1.14-.97,1.96-1.02,1.95-.01,0,.03-.21.15-.58.14-.36.35-.88.71-1.47.35-.59.83-1.27,1.48-1.92.64-.65,1.42-1.3,2.37-1.78,1.88-1.02,3.89-1.11,5.24-.96.34.05.65.06.92.13.25.06.48.12.68.17.37.1.57.16.57.18Z"/><path class="cls-13" d="m315.84,269.08s-.09.07-.28.17c-.21.12-.49.27-.83.45-.72.39-1.76.96-3.01,1.7-1.25.75-2.73,1.67-4.3,2.8-1.57,1.12-3.25,2.43-4.8,4.02-.77.8-1.47,1.63-1.96,2.54-.49.93-.95,1.84-1.38,2.7-.86,1.73-1.56,3.32-2.06,4.69-.5,1.37-.82,2.51-1,3.3-.19.79-.26,1.24-.28,1.24,0,0,0-.11.03-.33.03-.21.07-.53.15-.93.16-.8.44-1.96.93-3.35.48-1.39,1.17-2.99,2.02-4.74.42-.87.88-1.78,1.37-2.71.51-.95,1.23-1.8,2-2.61,1.57-1.61,3.27-2.92,4.85-4.04,1.59-1.12,3.08-2.03,4.34-2.76,1.27-.72,2.33-1.27,3.06-1.63.35-.17.63-.3.85-.41.2-.09.3-.13.3-.13Z"/><path class="cls-13" d="m295.03,291.55s-.07-.22-.15-.63c-.09-.46-.2-1.03-.32-1.71-.28-1.44-.71-3.43-1.4-5.57-.68-2.14-1.51-4-2.12-5.34-.29-.63-.53-1.16-.72-1.59-.17-.38-.25-.59-.24-.6.02,0,.13.19.33.55.2.36.47.89.8,1.55.65,1.32,1.51,3.18,2.2,5.34.69,2.15,1.1,4.16,1.34,5.62.12.73.2,1.32.24,1.73.05.41.06.64.05.64Z"/><path class="cls-5" d="m294.5,274.67c-.19-2.8-1.1-5.53-2.41-8.01-3.6-6.81-10.37-11.86-17.92-13.37,5.53,8.24,11.06,16.49,16.59,24.73l2.14,4.41c1.46-2.4,1.79-4.97,1.6-7.77Z"/></g><g><rect class="cls-10" x="279.71" y="323.41" width="38.58" height="6.84"/><polygon class="cls-10" points="282.6 328.89 285.88 350.11 311.49 350.11 315.42 328.89 282.6 328.89"/><path class="cls-13" d="m318.28,330.25c0,.08-8.7.14-19.44.14s-19.44-.06-19.44-.14,8.7-.14,19.44-.14,19.44.06,19.44.14Z"/></g></g></g><g id="Presentation"><g><g><rect class="cls-1" x="51.45" y="11.81" width="244.53" height="202.42"/><path class="cls-13" d="m295.98,214.22c0-1.41-.07-80.43-.17-202.42l.17.17c-70.02,0-154.13.02-244.51.03h-.02l.2-.2c0,73.28-.02,142.43-.02,202.42l-.18-.18c145.56.11,242.96.18,244.53.18-1.56,0-98.97.07-244.53.18h-.18s0-.18,0-.18c0-59.99-.01-129.14-.02-202.42v-.2h.22c90.37.01,174.48.02,244.51.03h.17s0,.17,0,.17c-.1,121.98-.17,201.01-.17,202.42Z"/><rect class="cls-8" x="188.08" y="134.62" width="83.49" height="5.53" rx="2.45" ry="2.45"/><rect class="cls-8" x="188.08" y="146.05" width="83.49" height="5.53" rx="2.45" ry="2.45"/><rect class="cls-8" x="188.08" y="156.63" width="46.18" height="5.53" rx="2.45" ry="2.45"/></g><rect class="cls-13" x="43.96" y="8.11" width="259.58" height="14.92" rx="6.62" ry="6.62"/><g><path class="cls-8" d="m178.24,136.98c0,.06-22.68.1-50.65.1s-50.65-.05-50.65-.1,22.67-.1,50.65-.1,50.65.05,50.65.1Z"/><path class="cls-8" d="m178.24,148.16c0,.06-22.68.1-50.65.1s-50.65-.05-50.65-.1,22.67-.1,50.65-.1,50.65.05,50.65.1Z"/><path class="cls-8" d="m178.24,159.35c0,.06-22.68.1-50.65.1s-50.65-.05-50.65-.1,22.67-.1,50.65-.1,50.65.05,50.65.1Z"/><path class="cls-8" d="m178.24,170.54c0,.06-22.68.1-50.65.1s-50.65-.05-50.65-.1,22.67-.1,50.65-.1,50.65.05,50.65.1Z"/><path class="cls-8" d="m178.24,181.72c0,.06-22.68.1-50.65.1s-50.65-.05-50.65-.1,22.67-.1,50.65-.1,50.65.05,50.65.1Z"/><rect class="cls-10" x="139.14" y="160.31" width="10.09" height="32.5"/><rect class="cls-10" x="158.2" y="149.57" width="10.09" height="43.23"/><rect class="cls-10" x="86.01" y="177.59" width="10.09" height="15.21"/><rect class="cls-10" x="102.71" y="173.05" width="10.09" height="19.75"/><rect class="cls-10" x="120.01" y="167.31" width="10.09" height="25.49"/><path class="cls-13" d="m179.16,192.82s-.16,0-.46,0c-.31,0-.77,0-1.36,0-1.2,0-2.97,0-5.24.02-4.55,0-11.13.02-19.27.03-16.27,0-38.74.02-63.56.03-4.3,0-8.53,0-12.56,0h-.1v-.09c.01-18.83.03-35.46.03-47.39.01-5.96.02-10.75.03-14.05,0-1.65.01-2.92.02-3.79,0-.43,0-.76,0-.98,0-.22,0-.33,0-.33,0,0,0,.11,0,.33,0,.22,0,.55,0,.98,0,.87.01,2.14.02,3.79,0,3.3.02,8.09.03,14.05,0,11.93.02,28.57.03,47.39l-.1-.09c4.03,0,8.26,0,12.56,0,24.82.01,47.29.02,63.56.03,8.13.01,14.71.02,19.27.03,2.27,0,4.04.01,5.24.02.6,0,1.05,0,1.36,0,.31,0,.46,0,.46,0Z"/><path class="cls-13" d="m81.72,142.63c0,.06-1.12.1-2.51.1s-2.51-.05-2.51-.1,1.12-.1,2.51-.1,2.51.05,2.51.1Z"/><path class="cls-13" d="m81.72,153.27c0,.06-1.12.1-2.51.1s-2.51-.05-2.51-.1,1.12-.1,2.51-.1,2.51.05,2.51.1Z"/><path class="cls-13" d="m81.72,163.91c0,.06-1.12.1-2.51.1s-2.51-.05-2.51-.1,1.12-.1,2.51-.1,2.51.05,2.51.1Z"/><path class="cls-13" d="m81.72,174.55c0,.06-1.12.1-2.51.1s-2.51-.05-2.51-.1,1.12-.1,2.51-.1,2.51.05,2.51.1Z"/></g><rect class="cls-10" x="138.2" y="44.96" width="82.42" height="8.22" rx="3.65" ry="3.65"/><rect class="cls-8" x="76.6" y="68.56" width="189.75" height="5.53" rx="2.45" ry="2.45"/><rect class="cls-8" x="76.6" y="81.75" width="189.75" height="5.53" rx="2.45" ry="2.45"/><rect class="cls-8" x="76.6" y="94.94" width="189.75" height="5.53" rx="2.45" ry="2.45"/><rect class="cls-8" x="75.89" y="108.13" width="46.18" height="5.53" rx="2.45" ry="2.45"/></g></g><g id="Speech_Bubble_2"><g><g><path class="cls-1" d="m624.68,187.24l-2.02-7.11c-3.81-1.78-7.19-4.59-9.68-8.36-7.14-10.84-4.14-25.41,6.69-32.55,10.84-7.14,25.41-4.14,32.55,6.69,7.14,10.84,4.14,25.41-6.69,32.55-4.52,2.98-9.7,4.19-14.71,3.8h.01s-6.15,4.98-6.15,4.98Z"/><path class="cls-13" d="m624.68,187.24s.14-.12.4-.35c.28-.23.67-.55,1.17-.98,1.04-.86,2.55-2.11,4.52-3.73l.03.16s0,0-.01,0c-.05-.02-.07-.07-.06-.12.01-.04.06-.07.1-.06,3.02.21,7.08-.09,11.34-2.02,2.13-.94,4.25-2.34,6.21-4.14,1.96-1.8,3.73-4.06,5.06-6.72,1.32-2.65,2.19-5.7,2.4-8.93.21-3.22-.25-6.62-1.49-9.85-2.42-6.46-8.21-12.14-15.58-14.1-3.7-1.01-7.58-1.13-11.18-.29-3.6.8-6.91,2.44-9.64,4.62-2.73,2.19-4.83,4.95-6.26,7.88-1.43,2.93-2.18,6.05-2.34,9.03-.31,6.01,1.72,11.36,4.5,15.08,2.78,3.78,6.15,6.03,8.86,7.3.02.01.04.03.05.06.62,2.29,1.11,4.06,1.44,5.28.16.59.28,1.05.37,1.38.08.31.12.48.12.48,0,0-.05-.14-.14-.44-.1-.32-.23-.76-.4-1.34-.36-1.22-.88-3-1.56-5.31l.05.06c-2.74-1.25-6.17-3.5-9.01-7.3-2.84-3.74-4.93-9.17-4.63-15.27.15-3.03.9-6.2,2.35-9.18,1.45-2.98,3.58-5.79,6.35-8.03,2.77-2.23,6.14-3.9,9.8-4.72,3.66-.86,7.61-.74,11.38.29,7.5,1.99,13.4,7.79,15.85,14.36,1.25,3.29,1.71,6.75,1.49,10.02-.22,3.28-1.11,6.37-2.47,9.06-1.35,2.7-3.16,4.98-5.16,6.8-1.99,1.82-4.15,3.22-6.31,4.16-4.32,1.93-8.42,2.2-11.47,1.95l.04-.18s.01,0,.01,0c.05.02.07.07.06.12,0,.02-.02.03-.03.04-2.02,1.6-3.58,2.83-4.64,3.68-.51.4-.9.71-1.18.93-.26.2-.39.3-.39.3Z"/></g><g><path class="cls-13" d="m626.06,153.73h3.5s0-2.94,3.06-2.99c1.59-.03,2.41,1.01,2.75,1.81.39.93.27,1.98-.25,2.84-.59.98-1.9,1.87-4.26,1.45v7.9h3.46v-4.63s4.86-1.26,4.86-6.61c0-5.12-4.59-6.31-6.56-6.31-1.5,0-6.63.36-6.56,6.54Z"/><rect class="cls-13" x="630.85" y="166.36" width="3.52" height="3.28"/></g></g></g><g id="Speech_Bubble_1"><g><g><path class="cls-1" d="m402.71,70.55l3.27-5.67c-1.22-3.51-1.52-7.4-.66-11.29,2.47-11.21,13.56-18.3,24.77-15.83,11.21,2.47,18.3,13.56,15.83,24.77-2.47,11.21-13.56,18.3-24.77,15.83-4.68-1.03-8.64-3.57-11.49-6.99h0s-6.95-.82-6.95-.82Z"/><path class="cls-13" d="m402.71,70.55s.16.01.47.04c.32.03.76.08,1.34.14,1.18.13,2.91.32,5.15.57l-.08.12s0,0,0-.01c-.02-.04,0-.09.04-.11.03-.02.08,0,.1.02,1.73,2.05,4.42,4.43,8.28,5.94,1.91.77,4.1,1.26,6.46,1.38,2.35.13,4.88-.14,7.38-.94,2.5-.8,4.97-2.12,7.14-3.98,2.17-1.85,4.04-4.24,5.33-7.01,2.61-5.52,2.64-12.7-.67-18.58-1.65-2.97-3.96-5.51-6.71-7.27-2.73-1.79-5.81-2.88-8.87-3.26-3.07-.38-6.12-.01-8.86.89-2.75.9-5.18,2.34-7.17,4.08-4,3.51-6.15,8.1-6.79,12.16-.68,4.09-.03,7.62.83,10.12,0,.02,0,.05,0,.07-1.07,1.81-1.89,3.21-2.46,4.17-.28.47-.49.83-.65,1.08-.15.25-.23.38-.23.38,0,0,.06-.12.19-.36.14-.26.34-.62.6-1.08.55-.98,1.36-2.41,2.4-4.27v.07c-.9-2.51-1.6-6.07-.93-10.22.63-4.11,2.78-8.78,6.83-12.36,2.02-1.78,4.49-3.25,7.28-4.17,2.78-.92,5.89-1.3,9.01-.92,3.12.38,6.26,1.49,9.04,3.31,2.8,1.79,5.16,4.38,6.84,7.4,3.36,5.99,3.33,13.31.66,18.92-1.32,2.82-3.22,5.25-5.44,7.13-2.21,1.88-4.73,3.23-7.27,4.02-2.54.8-5.11,1.06-7.49.92-2.39-.14-4.61-.65-6.53-1.44-3.89-1.55-6.59-3.99-8.31-6.07l.14-.09s0,.01,0,.01c.02.04,0,.09-.04.11-.01,0-.03,0-.05,0-2.26-.29-4-.52-5.2-.68-.57-.08-1-.13-1.31-.18-.29-.04-.43-.06-.43-.06Z"/></g><g><path class="cls-13" d="m420.09,58.1c0,1.09-.87,1.98-1.96,1.99s-1.98-.87-1.99-1.96c0-1.09.87-1.98,1.96-1.99s1.98.87,1.99,1.96Z"/><path class="cls-13" d="m427.99,58.04c0,1.09-.87,1.98-1.96,1.99-1.09,0-1.98-.87-1.99-1.96,0-1.09.87-1.98,1.96-1.99,1.09,0,1.98.87,1.99,1.96Z"/><path class="cls-13" d="m435.87,56.99c.55.94.24,2.15-.7,2.7-.94.55-2.15.24-2.7-.7-.55-.94-.24-2.15.7-2.7.94-.55,2.15-.24,2.7.7Z"/></g></g></g><g id="Character_5"><g><g><g><polygon class="cls-6" points="592.6 410.46 592.6 393.18 606.9 392.27 606 410.88 599.21 413.54 592.6 410.46"/><path class="cls-5" d="m598.3,410.77l-5.69-.31s-8.76,7.09-9.6,10.98c-.3,1.39,0,2.98,0,2.98l13.3.39c2.68,0,9.7.01,9.7.01v-13.92l-7.71-.12Z"/><path class="cls-13" d="m583.57,350.27c.04.81,6.84,50.51,6.84,50.51l17.25.04-.44-51.59-23.66,1.03Z"/><rect class="cls-8" x="582.86" y="422.92" width="23.12" height="2.41"/><path class="cls-13" d="m593.72,411.54c.15.04-.46,2.42-.94,5.39-.49,2.97-.67,5.42-.82,5.41-.14,0-.19-2.48.3-5.5.49-3.01,1.33-5.35,1.46-5.31Z"/><path class="cls-13" d="m605.02,421.64c-.09.03-.26-.97-1.21-2.19-.47-.6-1.14-1.24-2.03-1.71-.88-.47-1.98-.74-3.13-.69-1.15.06-2.23.42-3.05.98-.84.55-1.44,1.25-1.86,1.89-.82,1.31-.9,2.32-.99,2.29-.03,0-.05-.25.03-.7.07-.44.26-1.08.65-1.79.4-.7,1.01-1.48,1.9-2.1.88-.63,2.05-1.04,3.3-1.1,1.25-.06,2.45.25,3.39.79.95.53,1.63,1.25,2.09,1.91.46.67.7,1.28.81,1.72.12.43.12.68.09.69Z"/></g><polygon class="cls-6" points="630.12 411.66 631.14 394.41 616.92 392.67 616.72 411.3 623.35 414.35 630.12 411.66"/><path class="cls-5" d="m624.42,411.64l5.7.03s8.32,7.59,8.94,11.52c.22,1.4-.18,2.97-.18,2.97l-13.3-.4c-2.67-.16-9.69-.56-9.69-.56l.82-13.9,7.7.34Z"/><path class="cls-13" d="m638.75,354.24c-.05.81-7.61,50.4-7.61,50.4l-17.25-.22,1.23-51.58,23.64,1.39Z"/><rect class="cls-8" x="615.95" y="424" width="23.12" height="2.41" transform="translate(1228.89 886.64) rotate(-176.62)"/><path class="cls-13" d="m628.94,412.68c.13-.03.84,2.35,1.14,5.38.32,3.04.12,5.51-.02,5.5-.15,0-.18-2.45-.5-5.45-.3-3-.77-5.4-.63-5.44Z"/><path class="cls-13" d="m617.07,422.09s0-.26.13-.68c.14-.42.42-1.02.91-1.67.5-.63,1.23-1.31,2.2-1.78.97-.48,2.18-.71,3.43-.58,1.24.14,2.38.62,3.23,1.29.85.67,1.42,1.48,1.78,2.21.35.73.49,1.38.54,1.82.05.45.02.69-.01.7-.1.02-.11-1-.86-2.35-.37-.66-.94-1.4-1.74-2-.79-.6-1.84-1.03-2.99-1.16-1.15-.12-2.26.08-3.17.5-.91.42-1.62,1.02-2.12,1.59-1.01,1.16-1.24,2.15-1.33,2.11Z"/></g><g><path class="cls-6" d="m574.99,212.97s3.17-3.05,4.14-5.99c.97-2.95,2.87-7.23,3.06-8.15.19-.92-.77-1.35-1.89-.46-1.12.89-1.65,2.56-2.22,4.06-.57,1.5-1.41,1.33-1.41,1.33,0,0,1.51-7.04,1.86-9.28.37-2.4.88-4.26-.22-4.65-1.23-.43-1.57.71-2.02,2.43-.43,1.66-1.53,5.7-1.53,5.7l.75-6.42s.72-3.45-.77-3.46-1.51,3.51-1.51,3.51l-1.23,6.45s1.03-8.12.44-8.42c-.59-.3-1.51-.49-1.89,2.05-.38,2.54-1.54,7.74-1.54,7.74l-.22-.03.52-5.48c.03-.29.09-.8-.06-1.05-.29-.5-.95-.83-1.37.77-.48,1.85-1.43,8.15-1.69,10.39-.26,2.24.12,7.94.12,7.94l-3.51,5.25,8.72,4.76,3.45-8.98Z"/><rect class="cls-6" x="598.1" y="239.21" width="19.43" height="16.86"/><g><path class="cls-13" d="m586.89,252.34l-8.55-1.22-13.47-6.49,10.02-25.48-12.49-6.2s-10.61,23.31-12.46,30c-1.85,6.69-2.3,10.02,2.01,13.53,4.31,3.51,35.78,18.62,35.78,18.62l-.84-22.76Z"/><path class="cls-13" d="m627.78,251.74l-6.5-1.89-18.28-.73s-2.52-.23-8.73,1.21c-4.68,1.08-10.82,2.14-10.82,2.14,0,0-1.31,15.43-1.31,18.58l5.47,26.37h44.97l2.74-19.01c0,.06,2.72-21.06,2.7-21.11,0,0-5.22-4.13-10.24-5.55Z"/><path class="cls-13" d="m565.04,244.72c.04.11-1.9.43-3.74,1.88-1.86,1.43-2.64,3.23-2.74,3.17-.04-.01.1-.48.5-1.16.39-.68,1.08-1.54,2.02-2.28.95-.74,1.95-1.19,2.7-1.41.75-.22,1.24-.24,1.25-.2Z"/><path class="cls-13" d="m638.01,257.29s4.95,3.51,5.97,11.01,3.18,29.11,3.18,29.11h-11.95l-2.29-8.99,5.09-31.13Z"/><path class="cls-5" d="m637.4,266.01s0,.11,0,.32c-.02.25-.05.55-.09.91-.08.79-.23,1.93-.42,3.34-.38,2.82-.99,6.7-1.7,10.97-.7,4.25-1.33,8.1-1.8,10.96-.22,1.36-.39,2.48-.53,3.32-.06.36-.11.66-.15.9-.04.21-.07.31-.08.31-.01,0,0-.11,0-.32.02-.25.05-.55.09-.91.08-.79.23-1.93.42-3.34.38-2.82.99-6.7,1.7-10.98.7-4.25,1.33-8.1,1.8-10.95.22-1.36.39-2.48.53-3.32.06-.36.11-.66.15-.9.04-.21.07-.31.08-.31Z"/></g><path class="cls-5" d="m580.1,257.97c.08,0,.31,1.38.73,3.61.41,2.23,1.03,5.3,1.72,8.7.68,3.4,1.25,6.49,1.57,8.75.16,1.13.27,2.04.33,2.68.06.63.07.99.04.99-.08,0-.31-1.38-.73-3.61-.41-2.23-1.03-5.3-1.72-8.7-.68-3.4-1.25-6.49-1.57-8.74-.16-1.13-.27-2.04-.33-2.68-.06-.63-.07-.99-.04-.99Z"/></g><g><path class="cls-5" d="m585.06,352c-7.21,0-13.17-5.71-13.36-12.92-.37-13.53-.38-34.48-.36-43.56,0-2.46,2-4.45,4.47-4.45h69.5c2.51,0,4.52,2.06,4.46,4.57-.23,9.43-.76,31.3-1.09,44.86-.16,6.4-5.39,11.5-11.8,11.5h-51.82Z"/><g><path class="cls-8" d="m569.26,426.08l-3.97-.48,8.18-66.95c.47-3.93,3.76-6.89,7.65-6.89h58.61c3.88,0,7.16,2.95,7.65,6.87,1.96,15.83,7.42,66.49,7.47,67l-3.98.43c-.06-.51-5.51-51.14-7.47-66.94-.24-1.91-1.82-3.36-3.68-3.36h-58.61c-1.87,0-3.45,1.45-3.68,3.37l-8.18,66.95Z"/><path class="cls-13" d="m569.26,426.08s.03-.36.11-1.06c.08-.7.2-1.72.36-3.06.32-2.69.79-6.65,1.39-11.75,1.22-10.19,2.99-24.93,5.18-43.2.28-2.28.56-4.62.85-7.01.08-.58.1-1.21.33-1.83.21-.6.59-1.15,1.06-1.59.48-.43,1.07-.76,1.71-.91.65-.17,1.3-.09,1.92-.11,5.03,0,10.27,0,15.7-.02,10.86,0,22.48-.02,34.72-.02,1.53,0,3.07,0,4.62,0,.77,0,1.55,0,2.33,0,.81-.04,1.67.2,2.35.67.7.46,1.23,1.16,1.52,1.94.31.81.28,1.61.4,2.39.18,1.58.35,3.16.53,4.76.71,6.38,1.44,12.9,2.19,19.54,1.48,13.29,3.02,27.06,4.6,41.2l-.29-.23c1.25-.13,2.61-.28,3.98-.43l-.23.29c-.2-1.83-.42-3.8-.64-5.78-1.45-13-2.87-25.74-4.25-38.1-.69-6.18-1.36-12.27-2.03-18.25-.17-1.5-.33-2.98-.5-4.47-.12-1.46-.62-2.85-1.48-4-.84-1.16-2.02-2.05-3.34-2.57-.66-.25-1.36-.4-2.06-.46-.69-.05-1.44-.02-2.16-.03-11.59,0-22.7-.01-33.24-.02-5.27,0-10.39,0-15.36-.01-2.48,0-4.93,0-7.34,0-.6,0-1.2,0-1.78.03-.57.07-1.15.17-1.69.37-1.09.36-2.08,1-2.88,1.8-.81.79-1.41,1.77-1.79,2.82-.4,1.04-.45,2.16-.61,3.28-.27,2.22-.54,4.4-.81,6.53-.53,4.26-1.03,8.34-1.51,12.24-.96,7.78-1.83,14.79-2.6,20.94-1.54,12.27-2.64,21.07-3.22,25.65l-.04-.05c1.34.18,2.32.31,2.99.39.65.09.98.14.98.14,0,0-.3-.03-.96-.1-.67-.08-1.66-.19-3.02-.34h-.05s0-.05,0-.05c.54-4.58,1.59-13.39,3.05-25.67.74-6.15,1.59-13.16,2.52-20.94.47-3.89.96-7.98,1.48-12.24.26-2.13.52-4.31.79-6.53.15-1.1.2-2.26.62-3.36.39-1.1,1.02-2.13,1.87-2.97.84-.84,1.87-1.51,3.03-1.9.57-.21,1.18-.32,1.78-.39.62-.04,1.21-.04,1.81-.04,2.41,0,4.85,0,7.34,0,4.97,0,10.1,0,15.36-.01,10.54,0,21.65-.01,33.24-.02.73,0,1.43-.02,2.2.03.75.07,1.49.22,2.2.49,1.41.55,2.66,1.5,3.56,2.73.91,1.22,1.45,2.73,1.58,4.24.17,1.48.33,2.97.5,4.47.67,5.98,1.35,12.07,2.04,18.25,1.38,12.36,2.8,25.09,4.25,38.1.22,1.98.44,3.95.64,5.78l.03.26-.26.03c-1.36.15-2.72.29-3.98.43l-.26.03-.03-.26c-1.57-14.14-3.11-27.92-4.59-41.2-.74-6.64-1.46-13.16-2.17-19.54-.18-1.59-.35-3.18-.53-4.76-.11-.78-.1-1.6-.37-2.28-.26-.69-.73-1.31-1.34-1.71-.61-.42-1.33-.62-2.08-.59-.78,0-1.56,0-2.33,0-1.55,0-3.09,0-4.62,0-12.24,0-23.86-.02-34.72-.02-5.43,0-10.67-.01-15.7-.02-.63.02-1.26-.05-1.82.1-.58.13-1.1.43-1.54.82-.42.4-.77.89-.96,1.44-.21.53-.23,1.14-.32,1.74-.3,2.4-.59,4.74-.87,7.03-2.28,18.29-4.12,33.06-5.39,43.26-.64,5.07-1.14,9.01-1.47,11.69-.17,1.32-.3,2.33-.39,3.03-.09.68-.14,1.02-.14,1.02Z"/></g><path class="cls-13" d="m641.71,339.87s.02.1.03.3c-.01.2.08.5-.05.88-.1.78-.72,1.88-1.95,2.73-2.45,1.74-6.7,2.82-11.9,3.49-10.46,1.29-25.06,1.13-41.04-.38-1.99-.22-4.03-.55-5.79-1.57-1.78-1-2.95-2.81-3.49-4.64-.58-1.84-.74-3.73-.93-5.53-.17-1.81-.33-3.59-.49-5.32-.59-6.93-.94-13.18-1.13-18.43-.2-5.25-.24-9.51-.24-12.45,0-1.47.01-2.61.03-3.38,0-.36.02-.65.02-.88,0-.2.02-.3.03-.3s.02.1.03.3c0,.23.02.52.03.88.02.81.04,1.94.07,3.38.06,2.94.16,7.19.41,12.43.24,5.25.62,11.49,1.24,18.41.17,1.73.34,3.5.51,5.31.19,1.81.35,3.66.92,5.43.53,1.77,1.61,3.42,3.27,4.35,1.64.95,3.62,1.29,5.59,1.5,15.94,1.5,30.52,1.73,40.94.53,5.19-.62,9.41-1.64,11.83-3.29,1.22-.81,1.84-1.83,1.97-2.58.14-.36.07-.66.1-.86,0-.2.02-.3.03-.3Z"/></g><g><g><path class="cls-13" d="m615.98,204.6c2.37-2.03,7.46-1.04,8.49.62,1.9-.7,4.27.43,4.92,2.35,1.77.63,3.54,1.25,5.31,1.88.91.32,1.85.67,2.49,1.39.64.72.83,1.93.14,2.61,1.86.74,2.26,3.7.66,4.91.68.92.34,2.43-.68,2.96,1.28,2,2.22,4.21,2.76,6.53.23.97.37,2.03-.09,2.91-.46.88-1.75,1.37-2.48.69.45.82.36,1.9-.21,2.63.92.14,1.02,1.6.3,2.19-.72.59-1.76.53-2.68.4s-1.92-.31-2.74.12c0,.28.09.48.23.62,1.43,1.49,1.6,3.77.2,5.28-.13.14-.25.27-.36.39-.63.69-2.04,1.22-2.92,1.55-2.23.83-3.45.47-5.82.51.45,1.58-3.76,4.44-7.69.63-15.81,7-18.68-.96-18.68-.96-4.35,2.86-8.37.69-8.79-.53-1.07.15-2.13-.48-2.8-1.32-.67-.85-1.03-1.89-1.38-2.92-2.14-.87-3.58-3.22-3.38-5.52-1.35-1.36-2.09-3.31-1.98-5.22-2.07-.93-2.91-3.87-1.63-5.74.79-2.58,2.02-5.03,3.6-7.21-1.43-.5-1.73-2.55-.96-3.84.77-1.3,2.22-2.01,3.58-2.66-1.13.15-1.92-1.34-1.52-2.41.4-1.07,1.49-1.71,2.53-2.17,1.53-.68,3.15-1.17,4.8-1.46.76-1.86,3.5-3.75,5.42-4.38,7.72-2.54,12.93-2.77,21.37,5.19"/><path class="cls-13" d="m637.99,231.57s.14.03.41.01c.27-.02.67-.08,1.13-.32.45-.23.98-.66,1.27-1.36.29-.68.35-1.61-.09-2.46-.22-.42-.55-.79-.88-1.18-.32-.39-.66-.81-.79-1.34-.14-.53.02-1.09.29-1.61.27-.52.64-1.01.9-1.59.53-1.15.63-2.59.13-3.91-.5-1.31-1.61-2.45-3.03-2.95l.03.13c.28-.29.48-.66.59-1.05.11-.39.14-.81.09-1.22-.05-.41-.17-.82-.36-1.19-.19-.37-.45-.71-.74-1.01-.89-.9-2.04-1.42-3.17-1.8-1.13-.38-2.29-.57-3.4-.61l.07.08c.14-1.37-.55-2.73-1.62-3.4-.53-.35-1.14-.54-1.74-.58-.61-.06-1.19.11-1.73.22-.27.05-.54.09-.81.08-.26,0-.52-.08-.76-.18-.47-.21-.87-.54-1.26-.84-.39-.3-.78-.58-1.21-.76-.42-.18-.85-.3-1.26-.34-.83-.1-1.59.04-2.19.29-.6.25-1.06.59-1.38.91-.33.32-.53.6-.65.8-.12.2-.17.31-.17.31,0,0,.06-.11.19-.3.13-.19.34-.47.66-.78.33-.3.78-.64,1.37-.88.59-.24,1.34-.37,2.15-.27.4.05.82.16,1.23.35.41.18.8.45,1.18.75.39.3.78.63,1.28.86.25.11.52.19.8.2.28.02.56-.02.84-.07.55-.11,1.11-.26,1.69-.21.58.05,1.16.23,1.67.57,1.03.65,1.69,1.95,1.55,3.27v.08s.07,0,.07,0c1.1.04,2.24.23,3.36.6,1.11.37,2.24.89,3.1,1.76.29.29.53.62.72.97.19.35.3.74.35,1.13.05.39.02.79-.08,1.16-.1.37-.29.71-.55.99l-.08.09.11.04c1.38.49,2.46,1.59,2.95,2.86.49,1.27.39,2.68-.11,3.8-.26.56-.62,1.06-.89,1.59-.28.52-.45,1.13-.3,1.69.14.56.5.99.82,1.38.33.39.66.75.87,1.16.44.81.39,1.72.11,2.38-.28.67-.78,1.1-1.23,1.34-.45.24-.85.31-1.11.34-.27.02-.41,0-.41.01Z"/><path class="cls-13" d="m585.22,209.16s.01-.03.03-.1c.02-.07.04-.16.07-.28.06-.26.14-.62.25-1.08.11-.47.26-1.04.48-1.69.22-.65.51-1.38.97-2.11.45-.73,1.08-1.46,1.92-2.01.42-.27.9-.49,1.41-.63.52-.13,1.07-.17,1.64-.24.57-.07,1.16-.2,1.7-.5.54-.29,1.01-.69,1.47-1.12.46-.42.9-.88,1.4-1.27.49-.4,1.06-.72,1.68-.92,1.24-.41,2.55-.4,3.78-.29,1.23.13,2.41.33,3.52.62,2.21.55,4.1,1.43,5.54,2.37,1.44.95,2.42,1.97,3.02,2.72.15.19.28.36.39.51.1.15.19.28.26.39.07.1.12.18.16.24.04.05.06.08.06.08,0,0-.01-.03-.05-.09-.04-.06-.09-.14-.15-.25-.07-.11-.15-.24-.25-.4-.1-.15-.24-.32-.38-.52-.59-.76-1.56-1.81-3-2.78-1.44-.96-3.34-1.86-5.56-2.42-1.11-.29-2.3-.5-3.54-.63-1.24-.11-2.57-.13-3.84.3-.64.2-1.22.54-1.72.95-.51.4-.95.86-1.41,1.28-.45.42-.92.82-1.44,1.1-.52.28-1.08.42-1.65.49-.56.07-1.12.12-1.66.25-.53.14-1.02.37-1.45.66-.86.58-1.49,1.32-1.94,2.06-.46.74-.74,1.48-.95,2.14-.21.66-.35,1.23-.45,1.71-.1.47-.17.84-.22,1.09-.02.12-.04.21-.05.29-.01.06-.01.1-.01.1Z"/></g><path class="cls-5" d="m589.97,237.51s-.18-.05-.48-.21c-.29-.18-.72-.49-1.11-1.04-.38-.54-.75-1.31-.83-2.27-.09-.94.1-2.12.91-3.07l.06.28c-1.27-.57-2.39-1.93-2.53-3.65-.15-1.7.9-3.61,2.73-4.36l-.11.37c-.96-1.3-1.35-3.08-.97-4.78.35-1.72,1.63-3.27,3.31-4.01.81-.37,1.7-.55,2.57-.53l-.26.31c-.53-2.59.71-5.23,2.71-6.47,2.01-1.26,4.47-1.17,6.2-.24l-.29.11c.68-1.66,2-2.78,3.31-3.31,1.32-.55,2.61-.49,3.58-.26.98.24,1.66.65,2.08.96.21.16.36.29.46.39.1.1.14.15.13.16-.04.08-.81-.86-2.72-1.28-.93-.19-2.16-.21-3.39.34-1.22.53-2.44,1.61-3.05,3.15l-.09.22-.21-.11c-1.61-.84-3.91-.89-5.74.28-1.82,1.14-2.95,3.6-2.46,5.95l.07.32h-.33c-.79-.02-1.6.14-2.34.48-1.55.69-2.7,2.09-3.03,3.65-.35,1.56,0,3.2.86,4.39l.18.25-.29.12c-1.62.65-2.6,2.36-2.48,3.88.1,1.54,1.11,2.82,2.25,3.36l.22.1-.16.18c-.74.84-.96,1.93-.9,2.81.05.9.37,1.65.71,2.18.72,1.07,1.48,1.3,1.43,1.36Z"/><path class="cls-5" d="m605.39,238.51s-.27-.17-.65-.62c-.37-.44-.87-1.16-1.22-2.19-.34-1.02-.53-2.38-.17-3.84.35-1.45,1.24-2.99,2.72-4.08l-.06.33c-1.22-1.8-1.76-4.33-1.11-6.76.85-3.16,3.58-5.28,6.12-5.82l-.16.32c-.6-1.47-.63-2.99-.33-4.23.3-1.25.92-2.23,1.54-2.91.62-.68,1.23-1.09,1.66-1.32.43-.23.68-.31.69-.29.05.07-.99.43-2.14,1.79-.56.68-1.12,1.62-1.37,2.81-.26,1.18-.2,2.61.38,3.97l.11.26-.27.06c-2.38.53-4.93,2.55-5.72,5.5-.61,2.27-.12,4.66,1.01,6.35l.13.2-.19.14c-1.38.99-2.25,2.43-2.61,3.79-.37,1.37-.23,2.66.05,3.65.62,2.01,1.66,2.85,1.58,2.9Z"/><path class="cls-5" d="m626.86,237.35c-.06-.05.75-.43,1.28-1.71.25-.63.38-1.49.06-2.38-.3-.88-1.05-1.77-2.14-2.14l-.29-.1.19-.24c.9-1.12,1.59-2.63,1.75-4.32.19-1.69-.19-3.55-1.22-5.12-1.12-1.73-2.85-2.94-4.59-3.43l-.26-.07.09-.25c.6-1.65.53-3.38.08-4.76-.45-1.4-1.27-2.46-2.07-3.18-1.64-1.44-3.01-1.64-2.97-1.73,0-.02.33.01.91.21.57.2,1.39.57,2.26,1.29.85.72,1.76,1.8,2.26,3.28.5,1.46.61,3.28-.02,5.06l-.17-.32c1.86.51,3.7,1.77,4.89,3.62,1.1,1.67,1.5,3.68,1.28,5.46-.19,1.8-.94,3.38-1.91,4.55l-.09-.34c1.23.45,2.02,1.46,2.33,2.44.32.99.13,1.93-.16,2.58-.3.66-.71,1.08-1,1.32-.3.24-.49.31-.5.3Z"/></g></g></g><g id="Character_4"><g><g><path class="cls-7" d="m497.02,244.95l-21.07,2.07-.08-17.94s-1.51-.14-2.46-7.84-2.77-20.77-2.77-20.77h0c8.82-4.86,19.64-4.75,28.27.3l1.28.75-3.17,43.44Z"/><path class="cls-7" d="m498.74,211.28c.13-.07,5.32-2.17,5.72,3.12.41,5.29-5.18,4.64-5.2,4.49-.02-.15-.53-7.6-.53-7.6Z"/><path class="cls-7" d="m472.97,213.01c-.14-.04-5.15-.77-4.39,4.48.76,5.25,6.07,3.39,6.05,3.24-.01-.15-1.66-7.73-1.66-7.73Z"/><path class="cls-13" d="m500.45,210.49c-.33,4.51.09,6.81-.34,9.85-.68,4.8-2.68,8.65-6.78,11.46-4.1,2.81-10,3.42-14.09.66-2.84-1.92-4.96-4.2-5.71-7.48-.75-3.27-1.79-9.11-2.18-12.44-.71-6.02-1.77-11.72-1.77-11.72l17.47-5.08,10.78,4.7,2.62,10.05Z"/><path class="cls-13" d="m484.61,235.46c-.01.12,1.42.31,3.15-.08,1.73-.37,2.95-1.14,2.89-1.25-.07-.13-1.34.42-2.99.77-1.65.37-3.04.41-3.04.55Z"/><g><path class="cls-13" d="m500.42,218.1c.02-4.59-.21-9.8,0-14.66.08-1.82.45-4.48.09-6.26-.37-1.79-.75-3.63-1.76-5.17-1.26-1.93-3.49-3.24-5.86-3.44-2.36-.19-4.81.73-6.42,2.43-1.5-1.73-4.16-2.42-6.37-1.66-2.22.76-3.84,2.92-3.91,5.18-1.4-1.02-3.51-1.01-4.91.03-1.4,1.04-1.95,3.02-1.29,4.59-1.26.35-2.31,1.33-2.7,2.54-.4,1.2-.12,2.59.7,3.56.96,1.14,2.52,1.65,3.56,2.72,1.2,1.23,1.53,3.18.8,4.73"/><path class="cls-5" d="m473.87,204.47s.05.19.25.47c.21.28.57.68,1.16,1.01.58.33,1.43.59,2.4.45.95-.13,2.01-.64,2.71-1.61l-.39-.06c.31,1.12,1.37,2.05,2.67,2.37,1.3.38,2.87,0,3.96-.93,1.02-.84,1.66-1.98,1.94-3.11l-.43.1c1.12,1.31,2.84,1.82,4.27,1.69,1.47-.12,2.6-.92,3.25-1.71.67-.81.92-1.61,1-2.15.08-.55.03-.85.01-.85-.04,0-.04.3-.18.82-.13.51-.42,1.26-1.08,1.99-.64.72-1.7,1.42-3.04,1.5-1.31.1-2.87-.4-3.86-1.58l-.31-.37-.12.46c-.27,1.04-.87,2.09-1.79,2.85-1,.84-2.35,1.17-3.51.85-1.17-.28-2.1-1.09-2.38-2.04l-.13-.43-.26.37c-.6.86-1.55,1.36-2.41,1.5-.87.15-1.66-.05-2.22-.33-1.15-.58-1.48-1.32-1.53-1.27Z"/><path class="cls-5" d="m473.67,202.38c.09,0-.11-.86.55-2,.33-.55.9-1.14,1.74-1.42.82-.29,1.88-.28,2.77.2l.47.25-.1-.51c-.1-.49-.09-1.01.01-1.54.25-1.17,1-2.17,1.92-2.7.91-.55,1.94-.64,2.75-.54,1.66.23,2.4,1.09,2.45,1,.02-.02-.13-.24-.51-.54-.38-.29-1.01-.65-1.89-.81-.86-.15-2-.1-3.04.5-1.04.58-1.89,1.69-2.17,2.99-.12.58-.12,1.18,0,1.73l.36-.26c-1.05-.55-2.25-.53-3.17-.18-.94.35-1.55,1.05-1.87,1.67-.33.63-.39,1.2-.38,1.58.01.38.09.58.11.57Z"/><path class="cls-5" d="m485.05,201.28c.07-.04-.05-.3-.07-.73-.02-.43.08-1.01.38-1.62.3-.59.66-1.19.87-1.51.24-.3.52-.14.56-.17.03-.01.02-.12-.14-.2-.14-.08-.44-.07-.66.13-.22.19-.36.42-.55.67-.18.26-.37.55-.53.88-.34.67-.41,1.39-.28,1.87.12.49.37.71.42.68Z"/><path class="cls-5" d="m494.88,193.48c.05-.03-.04-.41-.44-.93-.2-.25-.49-.54-.9-.74-.41-.21-.96-.28-1.48-.15-1.06.27-1.68,1.04-2.02,1.55-.34.53-.49.89-.44.92.06.04.32-.26.72-.72.4-.45,1-1.07,1.85-1.28.85-.23,1.59.23,2,.64.43.41.64.73.71.7Z"/><path class="cls-5" d="m494.58,216.15c.11.06,1.02-1.47,1.51-3.57.5-2.1.37-3.85.24-3.84-.15,0-.24,1.7-.73,3.74-.47,2.04-1.16,3.62-1.02,3.68Z"/><path class="cls-5" d="m492.33,217.67c.13.04.66-1.08,1.06-2.54.4-1.47.49-2.69.36-2.71-.14-.02-.45,1.15-.84,2.59-.39,1.44-.7,2.62-.57,2.66Z"/><path class="cls-5" d="m477.37,219.7c-.12-.01-.13,2.2,1.13,4.57,1.23,2.38,3.08,3.67,3.14,3.57.11-.11-1.52-1.51-2.69-3.79-1.21-2.26-1.42-4.37-1.58-4.34Z"/><path class="cls-5" d="m474.55,216.11c-.12-.04-.6,1.91.11,4.21.69,2.31,2.2,3.68,2.27,3.58.12-.09-1.14-1.54-1.79-3.72-.68-2.17-.44-4.06-.59-4.07Z"/></g></g><g><polygon class="cls-7" points="468.13 408.39 459.8 389.91 473.7 384.17 480.68 403.66 475.42 408.71 468.13 408.39"/><path class="cls-5" d="m473.51,406.5l-5.38,1.89s-5.39,9.9-4.68,13.81c.25,1.39,1.14,2.75,1.14,2.75l12.44-4.72c2.47-1.02,8.97-3.7,8.97-3.7l-5.32-12.87-7.17,2.84Z"/><rect class="cls-1" x="463.29" y="418.62" width="23.12" height="2.41" transform="translate(-124.35 213.19) rotate(-22.45)"/><path class="cls-13" d="m469.58,408.96c.15-.02.49,2.41,1.19,5.34.68,2.93,1.45,5.26,1.31,5.31-.13.05-1.13-2.22-1.82-5.2-.7-2.97-.81-5.45-.68-5.46Z"/><path class="cls-13" d="m483.88,413.98c-.07.06-.61-.79-1.95-1.56-.66-.37-1.53-.71-2.52-.81-.99-.1-2.11.08-3.16.56-1.04.49-1.9,1.24-2.45,2.07-.56.83-.86,1.71-.99,2.46-.26,1.52.05,2.48-.04,2.5-.03,0-.14-.22-.24-.65-.1-.44-.17-1.09-.08-1.9.1-.8.37-1.76.96-2.67.58-.92,1.5-1.74,2.63-2.28,1.13-.53,2.36-.71,3.43-.57,1.08.13,1.99.53,2.66.97.68.45,1.14.92,1.41,1.28.27.36.37.58.35.6Z"/><path class="cls-13" d="m446.91,325.62s-8.9,6.76-9.73,12.83,1.03,12.86,1.41,13.9c.96,2.59,18.02,44.17,18.02,44.17l19.56-8.57-13.32-39.16-15.94-23.18Z"/></g><g><polygon class="cls-7" points="513.24 408.41 519.99 389.3 505.66 384.75 500.34 404.76 506.01 409.35 513.24 408.41"/><path class="cls-5" d="m507.72,406.99l5.52,1.43s6.2,9.41,5.83,13.37c-.13,1.41-.9,2.84-.9,2.84l-12.79-3.66c-2.55-.81-9.25-2.93-9.25-2.93l4.22-13.27,7.38,2.22Z"/><rect class="cls-1" x="495.95" y="419.18" width="23.12" height="2.41" transform="translate(863.89 974.72) rotate(-162.37)"/><path class="cls-13" d="m511.85,409.1c.14,0,.23,2.48-.22,5.5-.44,3.02-1.25,5.37-1.37,5.33-.15-.04.43-2.42.86-5.41.44-2.98.58-5.43.73-5.42Z"/><path class="cls-13" d="m498.02,415.31s.06-.25.3-.63c.24-.38.66-.89,1.3-1.39.64-.49,1.51-.97,2.57-1.19,1.06-.23,2.29-.15,3.47.28,1.17.44,2.16,1.18,2.81,2.05.66.86,1.01,1.79,1.18,2.58.16.8.14,1.46.08,1.9-.06.44-.15.68-.18.67-.1,0,.13-.99-.25-2.49-.2-.74-.57-1.59-1.2-2.36-.62-.78-1.53-1.45-2.61-1.86-1.08-.4-2.21-.48-3.19-.29-.99.18-1.82.59-2.45,1.01-1.27.88-1.73,1.78-1.81,1.72Z"/><path class="cls-13" d="m501.42,387.46l11.8-43.9,10.9-20.42s11.23,6.7,13.08,14.09c1.08,4.34-8.69,35.61-8.69,35.61l-6.76,21.17-20.33-6.55Z"/></g><g><path class="cls-10" d="m521.25,252.04s-9.72-9.49-24.29-13.53h-22.43l-17.73,8.96s-10.13,4.84-10.13,19.62.73,35.84,2.42,39.48c1.47,3.16,3.13,4.85,3.54,5.24-.58,8.92-1.03,15.7-1.16,17.53l68.52,1.54,5.33-67.37c.19-4.21-1.27-8.32-4.07-11.47Z"/><path d="m457.85,290.02c-.14.01-.84-5.93-1.55-13.28-.71-7.35-1.18-13.32-1.03-13.33.14-.01.84,5.93,1.55,13.28.71,7.35,1.17,13.32,1.03,13.33Z"/><path d="m514.63,290.93c-.14,0,.16-6.29.69-14.02.52-7.74,1.06-14,1.21-13.99.14,0-.16,6.29-.69,14.02-.52,7.73-1.06,13.99-1.21,13.98Z"/></g><g><path class="cls-5" d="m460.77,351.35c-7.27,0-13.28-5.76-13.48-13.03-.37-13.65-.38-34.78-.37-43.94,0-2.48,2.02-4.49,4.5-4.49h70.12c2.53,0,4.56,2.08,4.5,4.61-.23,9.51-.77,31.58-1.1,45.26-.16,6.46-5.44,11.61-11.9,11.61h-52.28Z"/><g><path class="cls-8" d="m444.83,426.08l-4.01-.49,8.25-67.54c.48-3.96,3.8-6.95,7.72-6.95h59.12c3.91,0,7.23,2.98,7.72,6.93,1.98,15.97,7.48,67.08,7.54,67.59l-4.01.43c-.06-.51-5.56-51.59-7.53-67.53-.24-1.93-1.83-3.39-3.71-3.39h-59.12c-1.88,0-3.48,1.46-3.71,3.4l-8.26,67.54Z"/><path class="cls-13" d="m444.83,426.08s.03-.37.11-1.07c.08-.71.2-1.74.36-3.09.32-2.72.8-6.71,1.4-11.85,1.23-10.28,3.02-25.15,5.23-43.58.28-2.3.56-4.66.85-7.07.08-.59.1-1.23.34-1.84.21-.61.59-1.16,1.07-1.61.48-.44,1.07-.77,1.72-.92.66-.17,1.31-.09,1.93-.11,5.08,0,10.37,0,15.84-.02,10.96,0,22.68-.02,35.03-.02,1.54,0,3.1,0,4.66,0,.78,0,1.57,0,2.35,0,.81-.04,1.68.2,2.37.68.7.47,1.24,1.17,1.53,1.96.31.81.28,1.62.4,2.41.18,1.59.36,3.19.54,4.8.72,6.44,1.46,13.01,2.21,19.71,1.5,13.4,3.05,27.3,4.64,41.56l-.29-.23c1.26-.14,2.64-.28,4.01-.43l-.23.29c-.21-1.84-.43-3.83-.65-5.83-1.46-13.12-2.89-25.96-4.28-38.43-.69-6.23-1.38-12.37-2.05-18.41-.17-1.51-.33-3.01-.5-4.51-.12-1.48-.63-2.88-1.49-4.04-.85-1.17-2.04-2.07-3.37-2.59-.67-.26-1.37-.4-2.08-.47-.7-.05-1.45-.02-2.18-.03-11.69,0-22.9-.01-33.53-.02-5.32,0-10.49,0-15.5-.01-2.51,0-4.97,0-7.4,0-.61,0-1.21,0-1.79.03-.58.07-1.16.17-1.7.37-1.1.37-2.1,1-2.9,1.81-.82.8-1.42,1.79-1.8,2.84-.4,1.05-.46,2.18-.61,3.31-.28,2.24-.55,4.43-.81,6.58-.53,4.3-1.04,8.42-1.53,12.34-.97,7.85-1.85,14.92-2.62,21.12-1.55,12.37-2.67,21.26-3.25,25.87l-.04-.05c1.35.18,2.35.31,3.01.4.66.09.99.14.99.14,0,0-.31-.03-.96-.1-.67-.08-1.68-.19-3.05-.34h-.05s0-.05,0-.05c.55-4.62,1.61-13.51,3.08-25.89.75-6.2,1.6-13.28,2.55-21.13.47-3.93.97-8.05,1.49-12.35.26-2.15.53-4.35.8-6.59.15-1.1.2-2.28.62-3.39.4-1.11,1.03-2.15,1.89-2.99.85-.85,1.89-1.53,3.05-1.92.58-.21,1.19-.32,1.8-.4.62-.04,1.22-.04,1.83-.04,2.43,0,4.89,0,7.4,0,5.01,0,10.18,0,15.5-.01,10.63,0,21.84-.01,33.53-.02.74,0,1.45-.02,2.22.03.75.07,1.5.22,2.22.5,1.42.55,2.69,1.51,3.59,2.75.92,1.23,1.46,2.76,1.59,4.27.17,1.5.34,3,.5,4.51.67,6.03,1.36,12.18,2.06,18.41,1.39,12.47,2.83,25.31,4.29,38.43.22,2,.44,3.99.65,5.83l.03.26-.26.03c-1.38.15-2.75.3-4.01.43l-.26.03-.03-.26c-1.59-14.26-3.14-28.16-4.63-41.56-.74-6.7-1.48-13.28-2.19-19.71-.18-1.61-.36-3.21-.53-4.8-.12-.79-.1-1.62-.37-2.3-.26-.7-.74-1.32-1.35-1.73-.62-.42-1.34-.63-2.1-.6-.79,0-1.57,0-2.35,0-1.56,0-3.12,0-4.66,0-12.35,0-24.07-.02-35.03-.02-5.48,0-10.76-.01-15.84-.01-.64.02-1.27-.06-1.84.1-.58.13-1.11.43-1.55.83-.43.4-.77.9-.97,1.45-.21.54-.24,1.15-.32,1.76-.3,2.42-.59,4.79-.88,7.1-2.3,18.45-4.15,33.35-5.43,43.64-.64,5.12-1.14,9.09-1.49,11.8-.17,1.33-.3,2.35-.39,3.05-.09.68-.14,1.03-.14,1.03Z"/></g><path class="cls-13" d="m517.91,339.12s.02.1.03.3c-.01.2.08.51-.05.89-.1.79-.73,1.89-1.97,2.75-2.47,1.76-6.76,2.85-12.01,3.52-10.56,1.3-25.28,1.14-41.4-.38-2.01-.22-4.07-.56-5.84-1.58-1.8-1.01-2.98-2.83-3.52-4.68-.59-1.86-.75-3.76-.93-5.58-.17-1.83-.34-3.62-.5-5.36-.6-6.99-.95-13.3-1.14-18.6-.2-5.3-.24-9.59-.24-12.56,0-1.48.01-2.63.03-3.41,0-.37.02-.66.02-.89,0-.2.02-.3.03-.3s.02.1.03.3c0,.23.02.52.03.89.02.82.04,1.96.07,3.41.06,2.96.16,7.25.41,12.54.24,5.29.63,11.59,1.25,18.57.17,1.74.34,3.53.51,5.36.19,1.82.36,3.69.93,5.47.54,1.78,1.62,3.45,3.3,4.39,1.66.96,3.65,1.3,5.64,1.51,16.08,1.52,30.79,1.74,41.3.53,5.23-.63,9.49-1.66,11.94-3.32,1.23-.81,1.86-1.85,1.99-2.6.14-.37.07-.67.1-.87,0-.2.02-.3.03-.3Z"/></g></g></g><g id="Character_3"><g><g><g><path class="cls-13" d="m352.77,323.02l.3,16.76s-16.94,5.93-17.19,9.03l32.52.59.61-26.14-16.24-.25Z"/><path class="cls-8" d="m363.15,338.56c.63.18,1.05.9.89,1.53-.16.63-.88,1.07-1.51.9-.63-.17-1.16-1.02-.93-1.63.23-.61,1.11-1.08,1.68-.76"/><path class="cls-5" d="m368.4,349.41l-.04-2.64-31.17.42s-1.46.6-1.31,1.63l32.52.59Z"/><path class="cls-1" d="m352.54,339.61c0,.16.8.25,1.57.77.79.5,1.18,1.2,1.32,1.14.15-.03-.07-.98-1.02-1.6-.94-.63-1.9-.46-1.87-.31Z"/><path class="cls-1" d="m349.1,340.96c-.04.15.64.44,1.17,1.12.55.67.67,1.39.83,1.39.15.03.28-.9-.4-1.74-.66-.84-1.6-.92-1.6-.77Z"/><path class="cls-1" d="m347.09,345.01c.14.04.38-.75-.01-1.63-.39-.88-1.13-1.24-1.2-1.11-.09.13.38.6.69,1.33.33.72.36,1.39.52,1.41Z"/><path class="cls-1" d="m352.89,335.78c.06.15.8-.06,1.69.02.9.06,1.59.37,1.68.24.09-.11-.58-.71-1.63-.79-1.06-.08-1.81.41-1.73.53Z"/></g><g><path class="cls-13" d="m392.45,322l1.76,20.21-3.22,16.39c-.23,1.18.59,2.31,1.78,2.46h0c.67.08,1.33-.16,1.79-.65,2.9-3.16,13.51-14.84,13.29-16.31-.25-1.7-.44-21.44-.44-21.44l-14.96-.65Z"/><path class="cls-5" d="m392.77,361.05l14.99-18.33.05.86c.05.74-.17,1.48-.61,2.07-1.19,1.59-4.57,5.92-12.59,14.75-.47.51-1.16.76-1.85.66h0Z"/><g class="cls-3"><path class="cls-1" d="m403.19,336.46c-.48.38-.6,1.16-.24,1.66.36.5,1.15.63,1.64.25.49-.37.66-1.3.24-1.76-.42-.46-1.35-.55-1.74-.07"/></g><path class="cls-1" d="m396.83,351.91c-.11.06-.64-.97-1.88-1.46-1.23-.53-2.33-.17-2.36-.3-.02-.05.23-.22.69-.32.46-.1,1.15-.08,1.84.2.68.28,1.18.76,1.44,1.15.26.4.31.7.26.72Z"/><path class="cls-1" d="m395.56,354.71c-.09.09-.78-.52-1.85-.76-1.06-.26-1.95,0-1.99-.13-.06-.1.88-.59,2.09-.31,1.21.27,1.85,1.13,1.75,1.19Z"/><path class="cls-1" d="m399.29,348.26c-.09.1-1.15-.85-2.77-1.36-1.62-.53-3.03-.37-3.05-.51-.04-.11,1.45-.48,3.18.08,1.74.55,2.73,1.72,2.64,1.78Z"/><path class="cls-1" d="m399.27,342.08c-.05.12-1.19-.27-2.65-.23-1.46.02-2.59.46-2.64.34-.06-.1,1.06-.76,2.63-.79,1.57-.04,2.72.58,2.66.68Z"/><path class="cls-1" d="m398.9,336.13c-.06.12-1.22-.48-2.76-.31-1.54.13-2.56.95-2.64.85-.04-.04.17-.31.62-.61.45-.3,1.15-.6,1.98-.68.83-.08,1.58.07,2.07.28.5.21.75.43.73.48Z"/><path class="cls-1" d="m396.11,334.68s-.09-.27-.08-.76c.01-.49.11-1.22.48-2.04.19-.39.39-.89.94-1.19.27-.15.69-.13.95.13.25.25.35.57.38.89.06,1.29-.96,2.6-2.4,2.88-1.44.25-2.81-.49-3.45-1.56-.14-.28-.25-.63-.12-.98.13-.35.53-.52.83-.49.61.05,1.01.37,1.38.61.73.52,1.2,1.08,1.48,1.48.28.41.38.67.36.68-.07.06-.58-.96-2.01-1.9-.36-.21-.78-.49-1.21-.5-.21,0-.39.09-.45.26-.07.17,0,.42.12.64.54.88,1.8,1.55,3.01,1.32,1.21-.22,2.11-1.38,2.07-2.41-.01-.25-.1-.5-.24-.63-.14-.14-.34-.16-.52-.08-.38.18-.62.63-.81.99-.76,1.54-.6,2.69-.69,2.67Z"/></g><g><path class="cls-5" d="m336.96,183.04s-2.47,9.55-1.57,21.18c.35,4.5,15.54,129.04,15.54,129.04h20.51l-5.77-117.05,1.68.36s11.2,49.92,12.11,58.01c.82,7.26,10.26,60.05,10.26,60.05l18.75.22-5.99-69.81-6.97-66.99-2.62-19.5-55.94,4.5Z"/><path class="cls-13" d="m368.9,204.27s-.29.2-.86.48c-.57.27-1.4.68-2.54.89-.57.1-1.21.13-1.89.01-.67-.12-1.39-.41-1.98-.95-.58-.54-.96-1.3-1.2-2.09-.24-.8-.38-1.63-.55-2.47-.65-3.38-1.1-6.46-1.36-8.7-.13-1.12-.22-2.03-.26-2.66-.05-.63-.06-.98-.03-.98.03,0,.1.34.19.96.11.71.24,1.59.4,2.63.34,2.22.83,5.29,1.48,8.66.33,1.66.56,3.36,1.6,4.35,1.04.97,2.49,1.08,3.54.92,1.09-.16,1.94-.52,2.52-.74.58-.23.91-.36.92-.33Z"/><path class="cls-13" d="m362.73,188.4s.13-.11.42-.13c.29-.02.72.07,1.15.37.41.3.85.84.86,1.58.03.75-.55,1.49-1.31,1.76-.76.3-1.68.12-2.15-.46-.47-.57-.5-1.26-.39-1.76.12-.51.39-.86.62-1.03.23-.18.39-.2.4-.18.06.06-.58.34-.72,1.27-.06.44,0,1.02.39,1.44.37.43,1.07.56,1.7.32.63-.23,1.07-.79,1.07-1.36.01-.57-.32-1.05-.65-1.34-.72-.61-1.39-.41-1.38-.49Z"/><path class="cls-13" d="m395.23,196.84s-.25.07-.7.11c-.45.05-1.11.06-1.92.02-1.62-.07-3.87-.47-6.18-1.43-2.3-.97-4.15-2.31-5.34-3.42-.6-.55-1.05-1.03-1.33-1.39-.29-.35-.43-.56-.41-.58.06-.05.72.7,1.94,1.74,1.22,1.04,3.06,2.3,5.31,3.25,2.25.94,4.44,1.38,6.03,1.53,1.59.15,2.59.1,2.6.17Z"/><path class="cls-13" d="m346.8,188.1s-.3.85-1.06,2.09c-.76,1.24-1.97,2.86-3.56,4.41-1.6,1.55-3.25,2.71-4.51,3.43-1.26.73-2.1,1.05-2.12,1.01-.03-.06.76-.48,1.96-1.27,1.2-.78,2.8-1.96,4.37-3.48,1.56-1.53,2.79-3.09,3.6-4.27.82-1.18,1.26-1.96,1.32-1.92Z"/></g></g><g><g><g><g><path class="cls-7" d="m360.59,45.47l.82-.05c8.24-.47,15.47,5.46,16.6,13.64,1.06,7.6,2.12,16.02,2.31,20.12.38,8.49-8.03,10.3-8.03,10.3l.3,3.45c.5,5.7-3.73,10.72-9.44,11.19h0c-5.63.46-10.59-3.68-11.13-9.31l-3.02-31.52c-1.27-8.77,2.78-16.82,11.58-17.84Z"/><path class="cls-9" d="m372.36,89.47s-5.4.64-11.31-2.62c0,0,2.97,5.96,11.39,4.71l-.08-2.09Z"/><path class="cls-13" d="m375.64,66.95c.06.64-.43,1.22-1.1,1.29-.66.07-1.25-.38-1.31-1.02-.06-.64.43-1.22,1.1-1.29.67-.07,1.25.38,1.31,1.02Z"/><path class="cls-13" d="m376.43,63.32c-.14.17-1.1-.46-2.4-.38-1.3.06-2.22.79-2.37.63-.07-.07.06-.36.46-.69.39-.33,1.08-.66,1.89-.7.81-.04,1.51.22,1.92.5.42.28.57.56.5.64Z"/><path class="cls-13" d="m364.36,67.75c.06.64-.43,1.22-1.1,1.29-.66.07-1.25-.38-1.31-1.02-.06-.64.43-1.22,1.1-1.29.67-.07,1.25.38,1.31,1.02Z"/><path class="cls-13" d="m363.62,64.3c-.14.17-1.1-.46-2.4-.38-1.3.06-2.22.79-2.37.63-.07-.07.06-.36.46-.69.39-.33,1.08-.66,1.89-.7.81-.04,1.51.22,1.92.5.42.28.57.56.5.64Z"/><path class="cls-13" d="m368.91,73.7c-.01-.07.79-.26,2.1-.5.33-.05.64-.14.69-.37.06-.24-.1-.6-.28-.97-.36-.79-.74-1.61-1.13-2.48-1.58-3.53-2.74-6.44-2.59-6.51.14-.06,1.54,2.75,3.11,6.28.38.87.74,1.7,1.09,2.5.15.37.39.79.25,1.3-.08.25-.31.45-.52.52-.21.08-.4.09-.56.11-1.32.15-2.14.2-2.15.13Z"/><path class="cls-13" d="m363.66,59.17c-.11.36-1.42.27-2.94.54-1.53.24-2.73.76-2.96.45-.1-.15.1-.49.58-.87.47-.37,1.25-.74,2.16-.9.91-.15,1.76-.06,2.33.14.57.19.87.46.83.63Z"/><path class="cls-13" d="m375.73,59.57c-.21.31-1.13.05-2.21.1-1.08,0-1.98.31-2.21.02-.1-.15.03-.45.41-.75.38-.3,1.02-.57,1.77-.59.74-.02,1.4.21,1.8.49.4.28.54.58.45.73Z"/><path class="cls-13" d="m376.97,55.21s-2.54-5.19-5.18-6.28c-3.19-1.32-4.33,2.16-7.33,1.5-3-.66-6.05-1.93-8.94.53-3.16,2.69-1.51,4.36-1.5,8.14.05,15.32-2.49,19.8-3.7,12.65-.13-.78-2.36-1.28-2.87-4.59-.67-4.29-1.14-9.52-.35-12.64.66-2.63,2.03-4.5,4.56-6.62,3.99-3.34,9.71-3.74,13.62-3.57,3.91.17,11.66,4.21,11.69,10.89Z"/><path class="cls-7" d="m350.85,71.49c-.13-1.31-1.32-2.28-2.62-2.08-1.57.24-3.28,1.24-2.99,4.51.52,5.79,6.23,4.08,6.22,3.91,0-.11-.38-3.92-.62-6.34Z"/><path class="cls-9" d="m350.01,75.76s-.09.08-.26.17c-.16.09-.44.17-.75.08-.63-.17-1.23-1.1-1.36-2.14-.06-.53,0-1.04.15-1.47.14-.44.39-.76.69-.84.3-.1.53.07.62.22.09.15.07.27.1.28.02.01.12-.11.05-.34-.03-.11-.11-.24-.26-.34-.15-.1-.36-.14-.57-.1-.44.07-.81.52-.97.99-.19.48-.27,1.06-.21,1.65.14,1.16.84,2.2,1.7,2.37.42.07.75-.08.91-.24.17-.16.19-.29.16-.3Z"/></g><path class="cls-13" d="m378.2,48.93c-.89-.67-2.12-.77-3-1.45-1.61-1.23-1.68-4.04-3.57-4.78-1.12-.44-2.38.1-3.58-.02-1.94-.2-2.68-1.66-5.63-1.67-3.82-.01-5.05,2.84-5.05,2.84,0,0-2.1-1.14-4.4.41-1.73,1.17-1.84,3.51-1.84,3.51,0,0-.61-.3-2.44,1.14-1.17.92-2.12,2.91-2.54,4.34-.63,2.12.29,4.37,1.2,6.39.49,1.09,1.1,2.3,2.23,2.68,1.39.47,2.91-.62,3.45-1.97.54-1.36,1.4-2.72,2.06-4.03,1.14-2.27,2.31-4.38,1.35-5.83,1.32-.42,2.76-.46,4.08-.02,1.33.44,2.49,1.29,3.81,1.76,1.32.47,3,.44,3.9-.64.67,1.61,3.08,2.14,4.35.94,1.04,1.71,3.49,2.5,5.2,1.47,1.71-1.03,2.03-3.87.43-5.07Z"/><path class="cls-5" d="m346.76,58.28c.05-.03.28.51.67,1.33.2.4.48.87.96,1.17.48.3,1.13.33,1.8.21.67-.12,1.26-.39,1.74-.73.47-.35.84-.75,1.13-1.09.58-.7.92-1.16.97-1.13.03.02-.23.53-.78,1.28-.28.37-.63.8-1.14,1.2-.5.38-1.15.69-1.86.82-.7.13-1.47.1-2.03-.28-.55-.38-.82-.92-1.01-1.34-.34-.87-.48-1.41-.45-1.43Z"/><path class="cls-5" d="m346.98,62.76s.37.39,1.15.64c.38.12.86.19,1.39.12.52-.07,1.08-.28,1.59-.61,1.04-.67,1.71-1.62,2.18-2.3.46-.69.75-1.12.79-1.1.04.02-.17.5-.58,1.23-.42.72-1.08,1.74-2.2,2.46-.56.35-1.17.58-1.74.63-.58.06-1.1-.04-1.5-.21-.82-.34-1.1-.86-1.06-.87Z"/></g><g><path class="cls-9" d="m365.21,75.83c-.26.64-.25,1.27-.33,1.95-.08.68.21,1.17.63,1.71.44.56,1.17.85,1.88.87,0,0,.01,0,.02,0,1.33.02,2.46-.99,2.67-2.31l.23-1.44c-1.36-.37-5.01-.69-5.11-.79Z"/><path class="cls-13" d="m368.77,79.95s-.17,0-.46.05c-.29.04-.72.09-1.23,0-.5-.08-1.08-.34-1.49-.87-.41-.51-.63-1.27-.59-2.04.02-.43.13-.83.31-1.18l-.18.09c1.3.2,2.44.35,3.26.45.82.1,1.31.14,1.31.09,0-.04-.47-.16-1.28-.31-.81-.16-1.94-.36-3.24-.57l-.12-.02-.06.11c-.21.39-.33.85-.36,1.32-.05.85.2,1.69.69,2.27.48.58,1.16.86,1.71.91.56.06,1-.04,1.29-.12.29-.08.44-.16.43-.18Z"/></g></g><path class="cls-5" d="m350.2,72.16c-.3-.58-1.11-.93-1.64-.55-.66.37-.79.9-.97,1.63-.13.52-.09,1.1.2,1.55.29.45.88.72,1.39.56.54-.17.85-.74,1.03-1.28.2-.62.3-1.33,0-1.92Z"/><path class="cls-5" d="m360.51,82.24c-1.79,0-3.58-.37-5.22-1.12-3.27-1.49-5.82-4.45-6.82-7.89l.96-.28c.92,3.17,3.27,5.89,6.28,7.26,3,1.38,6.59,1.38,9.6,0l.42.91c-1.63.75-3.42,1.12-5.21,1.12Z"/><path class="cls-5" d="m364.45,79.26h2.12c.88,0,1.6.72,1.6,1.6v.06c0,.88-.71,1.59-1.59,1.59h-2.12c-.88,0-1.6-.72-1.6-1.6v-.06c0-.88.71-1.59,1.59-1.59Z" transform="translate(-8.74 72.08) rotate(-11.13)"/><path class="cls-5" d="m350.09,73.13c.48-.5.92-1.06,1.16-1.71.23-.65.23-1.42-.13-2.01-.32-.51-.87-.83-1.43-1.05-.49-.19-1.01-.33-1.53-.29-.52.04-1.05.27-1.36.69-.17.23-.26.57-.08.8.21.25.6.19.92.1.43-.11.88-.21,1.32-.16s.89.25,1.13.63c.27.43.21,1.01-.02,1.47s-.61.82-.98,1.17"/></g><g><path class="cls-8" d="m330.63,103.95c-.5,0-7.69,2.87-9.58,9.93-1.89,7.06-7.06,32.91-7.06,32.91l-5.48,7.58s1.77,13.86,11.86,11.23c0,0,6.73,1.17,8.87-5.65,2.14-6.82,6.3-27.17,6.3-27.17l-4.92-28.84Z"/><path class="cls-8" d="m351.6,92.11l-3.81,5.76-17.17,6.07,4.92,49.79-1.84,26.1c-.24,3.47,2.56,6.4,6.04,6.3l53.96-1.59c1.35-.04,1.98-1.75,2.21-3.59.2-1.65.03-3.33-.43-4.94l-2.84-9.98c.42,6.21-1.44-37.05-1.51-38.62l4.16-22.26-19.54-7.9-3.02-4.67-8.79,6.69-12.33-7.15Z"/><path class="cls-8" d="m395.28,105.15s3.93,3.45,4.59,6.08c.66,2.63,14.78,33.24,14.78,33.24l7.02,1.89,1.87,3.89c2.22,4.61,1.02,10.22-3.06,13.31-.26.19-.51.37-.75.51-3.79,2.25-10.61,2.17-14.58-2.52-3.76-4.44-14.77-20.4-14.77-20.4v-19.53l4.9-16.47Z"/><path class="cls-7" d="m418.3,147.56l10.09-5.96,4.86,5.96-1.01,2.88-13.01,9.66s-2.44-1.79-3.02-5.23c-.61-3.62,2.08-7.31,2.08-7.31Z"/><path class="cls-13" d="m415.09,144.48c0,.09-.86.02-2.12.43-1.26.39-2.89,1.36-4.19,2.91-1.31,1.56-2.11,3.26-2.67,4.48-.55,1.23-.88,2.01-.96,1.98-.06-.02.14-.84.62-2.12.48-1.27,1.24-3.04,2.61-4.68,1.37-1.63,3.13-2.61,4.49-2.92,1.37-.33,2.24-.12,2.22-.07Z"/><path class="cls-7" d="m428.22,144.91c-.09-.19-.84-4.47,2.42-7.27,3.26-2.8,6.2-3.78,7.97-4.57s5.45-3.87,6.11-3.12c.65.75.93,1.86,0,3.22-.93,1.35-6.27,3.38-5.53,5.1.31.7,1.98.82,1.98.82,0,0,6.43.42,9.14.19,2.7-.23,5.13.28,4.99,1.21-.14.93-.65,1.45-2.89,1.63-2.24.19-5.87.05-6.06.56-.19.51.56.84,1.86.75,1.31-.09,7.46-.09,7.88.61.42.7.09,1.77-.75,2l-1.44.51s.84,1.17.14,1.82c-.7.65-2.28.42-2.28.42l-8.16-.23s-.47.49-.23.83c.23.34,6.62-.13,6.67.57.05.7.61,1.03-1.31,1.49-1.91.47-6.71.47-8.44,0-1.72-.47-8.95-.79-8.95-.79l-3.12-5.73Z"/><path class="cls-7" d="m317.38,148.63l-9.44-7.83-5.42,6.09.66,2.98,11.8,11.11s2.55-1.23,3.71-4.53c1.17-3.34-1.31-7.82-1.31-7.82Z"/><path class="cls-7" d="m307.83,144.84c.11-.17,1.35-4.35-1.56-7.5-2.91-3.16-5.72-4.47-7.38-5.47-1.67-.99-4.97-4.48-5.7-3.81-.74.66-1.14,1.74-.37,3.19.77,1.45,4.44,3.15,4.31,5.01-.09,1.35-1.48,1.28-1.48,1.28,0,0-6.44-.33-9.1-.88s-5.13-.32-5.09.62c.03.94.48,1.51,2.68,1.96,2.2.45,5.83.73,5.95,1.26.13.53-.65.77-1.94.52-1.29-.24-7.4-.96-7.89-.32-.5.65-.3,1.75.51,2.08l1.38.68s-.97,1.06-.35,1.79c.62.73,2.22.68,2.22.68l8.13.72s.41.54.13.85c-.27.31-6.56-.9-6.69-.21s-.72.95,1.12,1.63,6.61,1.25,8.38.98c1.77-.26,8.98.26,8.98.26l3.77-5.33Z"/><path class="cls-13" d="m375.26,98.67c.05.06-.62.71-1.7,1.76-1.07,1.06-2.55,2.52-4.11,4.21-.33.36-.65.71-.96,1.05l-.21.23-.19-.24c-1.21-1.55-2.25-2.93-2.98-3.93-.73-1-1.15-1.62-1.09-1.66s.56.51,1.36,1.45c.8.94,1.9,2.28,3.12,3.82h-.39c.31-.35.63-.71.96-1.07,1.57-1.7,3.1-3.13,4.24-4.12,1.14-.99,1.9-1.55,1.95-1.49Z"/><path class="cls-13" d="m331.74,117.15s.13.37.28,1.05c.15.68.33,1.68.53,2.92.4,2.47.82,5.91,1.17,9.71.35,3.8.61,7.25.8,9.74.08,1.16.15,2.14.21,2.95.04.7.05,1.09.01,1.09-.04,0-.11-.38-.22-1.07-.11-.69-.24-1.7-.38-2.94-.29-2.49-.6-5.93-.95-9.73-.35-3.8-.71-7.23-1.02-9.71-.14-1.15-.26-2.13-.36-2.94-.08-.69-.11-1.08-.08-1.09Z"/><path class="cls-13" d="m391.44,115.42s.1.47.18,1.33c.09.86.18,2.1.26,3.63.17,3.07.26,7.32.27,12.01,0,4.64,0,8.83,0,12.01,0,1.46,0,2.68,0,3.64,0,.86-.02,1.34-.06,1.34-.04,0-.09-.47-.14-1.33-.06-.86-.12-2.1-.17-3.64-.1-3.07-.14-7.32-.15-12.01-.01-4.69-.04-8.93-.12-12-.04-1.46-.07-2.67-.09-3.64-.02-.86-.02-1.34.02-1.34Z"/><path class="cls-13" d="m324,159.44c-.08,0-.22-1.02-.53-2.64-.32-1.62-.83-3.87-2.04-6.07-1.21-2.19-2.97-3.73-4.41-4.48-1.45-.77-2.5-.87-2.48-.96,0-.03.27-.04.73.03.47.07,1.14.25,1.91.6,1.55.69,3.44,2.27,4.7,4.55,1.25,2.28,1.72,4.61,1.95,6.26.22,1.66.23,2.7.16,2.7Z"/><path class="cls-13" d="m326.45,149.13c-.11.12-1.63-1.44-4.1-2.26-2.45-.86-4.61-.56-4.62-.72-.06-.12,2.19-.68,4.79.23,2.61.88,4.04,2.7,3.93,2.76Z"/><path class="cls-13" d="m365.16,184.59s-.04-.29-.06-.85c-.01-.61-.03-1.42-.06-2.45-.04-2.17-.1-5.23-.18-8.99-.18-7.64-.42-18.11-.7-29.67-.27-11.59-.42-22.09-.41-29.69,0-3.8.04-6.87.09-9,.03-1.02.05-1.84.07-2.45.02-.56.04-.85.06-.85.02,0,.03.29.04.85,0,.61.01,1.42.03,2.45.02,2.17.05,5.23.08,8.99.08,7.59.3,18.09.56,29.68.26,11.59.48,22.08.54,29.68.04,3.8.03,6.87.01,9-.02,1.03-.03,1.84-.04,2.45-.01.56-.03.85-.05.85Z"/><path class="cls-13" d="m316.92,148.3c.04-.05.74.52,1.38,1.78.32.63.62,1.41.8,2.33.17.93.18,1.96.04,3.02-.15,1.06-.42,2.07-.88,2.9-.46.83-1.07,1.45-1.65,1.86-1.18.83-2.13.81-2.12.76-.03-.09.85-.21,1.9-1.06.51-.42,1.05-1.02,1.45-1.79.41-.77.65-1.73.79-2.74.13-1.02.14-2,0-2.87-.14-.87-.4-1.64-.67-2.26-.52-1.25-1.1-1.88-1.04-1.93Z"/><path class="cls-13" d="m421.13,161.19s-.24-.02-.63-.19c-.39-.16-.93-.46-1.54-.92-1.2-.91-2.62-2.66-3.07-4.99-.44-2.33.22-4.48,1-5.77.39-.66.78-1.13,1.08-1.43.3-.3.49-.43.52-.41.07.06-.61.71-1.27,2.01-.66,1.28-1.23,3.32-.81,5.5.43,2.18,1.71,3.86,2.8,4.8,1.1.97,1.97,1.31,1.93,1.4Z"/><path class="cls-13" d="m382.57,138.32s-.45.3-1.31.76c-.85.46-2.11,1.11-3.66,1.88-3.11,1.55-7.46,3.59-12.35,5.66-4.89,2.07-9.38,3.77-12.66,4.93-1.64.58-2.97,1.03-3.9,1.32-.93.29-1.45.44-1.46.41-.01-.03.48-.24,1.39-.6,1-.38,2.29-.88,3.84-1.47,3.24-1.24,7.71-3,12.59-5.06,4.88-2.07,9.24-4.05,12.39-5.51,1.51-.7,2.76-1.28,3.73-1.73.88-.41,1.38-.61,1.4-.58Z"/><path class="cls-9" d="m440.5,136.02c.06.06-.38.48-.94,1.22-.27.38-.53.84-.64,1.43-.12.59-.11,1.28-.21,2.03-.2,1.55-1.15,2.71-1.95,3.28-.81.59-1.44.68-1.46.62-.03-.08.53-.29,1.22-.91.68-.61,1.48-1.68,1.66-3.07.1-.7.1-1.41.26-2.06.15-.66.5-1.19.82-1.56.67-.73,1.19-1.03,1.23-.99Z"/><path class="cls-9" d="m293.38,144.04c0,.14-2.54.27-5.68.12-3.14-.15-5.65-.52-5.64-.66.01-.15,2.55,0,5.66.14,3.12.15,5.65.25,5.65.4Z"/><path class="cls-9" d="m299.15,143.61c-.01.05-.61-.05-1.32-.65-.7-.58-1.49-1.78-1.44-3.26.03-.72.22-1.36.35-1.92.14-.56.21-1.06.19-1.49-.02-.85-.38-1.29-.32-1.34.03-.06.56.35.68,1.31.07.46.03,1.03-.09,1.62-.11.59-.28,1.21-.3,1.84-.05,1.28.59,2.37,1.17,2.97.59.62,1.11.84,1.07.92Z"/><path class="cls-9" d="m441.95,145.42c.01-.14,2.72-.03,6.05.24,3.33.28,6.02.62,6.01.76-.01.14-2.72.03-6.05-.24-3.33-.28-6.02-.62-6.01-.76Z"/><path class="cls-13" d="m363.41,99.59c.07.03-.38,1.16-1.15,2.95-.2.46-.41.95-.64,1.47-.26.53-.42,1.07-.8,1.7-.18.3-.62.61-1.08.52-.43-.08-.73-.33-1.01-.52-.58-.4-1.18-.81-1.8-1.23-2.46-1.69-4.67-3.25-6.25-4.4-1.58-1.15-2.54-1.89-2.5-1.95.04-.06,1.07.57,2.71,1.65,1.64,1.07,3.88,2.58,6.34,4.28.61.42,1.21.84,1.79,1.24.29.2.56.41.8.45.23.05.44-.08.6-.31.58-1.05,1.06-2.19,1.5-3.04.86-1.76,1.42-2.83,1.49-2.8Z"/></g></g></g><g id="Character_2"><g><g><g><polygon class="cls-6" points="194.54 411.4 193.89 391.14 208.93 391.14 207.94 411.83 201.14 414.48 194.54 411.4"/><path class="cls-5" d="m200.23,411.71l-5.69-.31s-8.76,7.09-9.6,10.98c-.3,1.39,0,2.98,0,2.98l13.3.39c2.68,0,9.7.01,9.7.01v-13.92l-7.71-.12Z"/><rect class="cls-8" x="184.81" y="423.33" width="23.12" height="2.41"/><path class="cls-13" d="m195.66,412.48c.15.04-.46,2.42-.94,5.39-.49,2.97-.67,5.42-.82,5.41-.14,0-.19-2.48.3-5.5.49-3.01,1.33-5.35,1.46-5.31Z"/><path class="cls-13" d="m206.95,422.58c-.09.03-.26-.97-1.21-2.19-.47-.6-1.14-1.24-2.03-1.71-.88-.47-1.98-.74-3.13-.69-1.15.06-2.23.42-3.05.98-.84.55-1.44,1.25-1.86,1.89-.82,1.31-.9,2.32-.99,2.29-.03,0-.05-.25.03-.7.07-.44.26-1.08.65-1.79.4-.7,1.01-1.48,1.9-2.1.88-.63,2.05-1.04,3.3-1.1,1.25-.06,2.45.25,3.39.79.95.53,1.63,1.25,2.09,1.91.46.67.7,1.28.81,1.72.12.43.12.68.09.69Z"/><polygon class="cls-6" points="233.67 412.01 236.67 391.97 221.73 390.21 220.31 410.88 226.75 414.3 233.67 412.01"/><path class="cls-5" d="m227.98,411.66l5.69.36s7.87,8.06,8.26,12.02c.14,1.41-.35,2.96-.35,2.96l-13.25-1.17c-2.66-.31-9.64-1.12-9.64-1.12l1.62-13.83,7.67.78Z"/><rect class="cls-8" x="218.75" y="423.65" width="23.12" height="2.41" transform="translate(409.53 873.66) rotate(-173.31)"/><path class="cls-13" d="m232.43,412.96c.13-.03.7,2.39.83,5.44.14,3.05-.2,5.51-.34,5.49-.15-.01-.04-2.46-.18-5.47-.13-3.01-.46-5.44-.31-5.46Z"/><path class="cls-13" d="m220.03,421.67s0-.26.17-.67c.17-.42.48-1,1.01-1.61.53-.6,1.3-1.24,2.3-1.65,1-.43,2.22-.59,3.46-.39,1.23.21,2.34.75,3.15,1.48.81.72,1.33,1.56,1.65,2.31.31.75.41,1.4.44,1.85.02.45-.02.69-.05.69-.1.01-.06-1-.72-2.39-.34-.68-.86-1.45-1.62-2.09-.76-.65-1.78-1.14-2.92-1.33-1.14-.18-2.26-.05-3.19.32-.93.36-1.67.92-2.21,1.46-1.08,1.1-1.36,2.08-1.45,2.03Z"/><path class="cls-13" d="m186.33,348.24c0,.89,3.38,49.81,3.38,49.81h21.65l2.32-50.52-27.35.7Z"/><polygon class="cls-13" points="244.74 347.61 239.05 399.19 217.86 397.48 219.24 346.16 244.74 347.61"/></g><g><path class="cls-13" d="m225.75,188.11l-.41-.16c-1-2.49-3.44-4.28-6.08-4.75-2.64-.47-5.43.29-7.65,1.8-1.54,1.05-2.83,2.44-4.37,3.49-1.55,1.04-3.51,1.73-5.28,1.12-.31.65.9,1.2.74,1.9-.08.33-.45.51-.79.53-.5.04-.99-.15-1.49-.2-.5-.05-1.09.11-1.27.58-.09.23-.06.48-.03.73.29,2.18.9,4.37,2.22,6.13,1.32,1.76,3.43,3.02,5.62,2.89,1.75-.11,3.32-1.05,4.82-1.97,2.84-1.74,5.68-3.48,8.52-5.22,1.31-.8,2.64-1.62,3.69-2.74,1.06-1.12,1.83-2.59,1.78-4.12Z"/><path class="cls-13" d="m224.08,188.34c1.16-.71,2.47-1.24,3.83-1.33,1.36-.09,2.79.3,3.79,1.23.93.86,1.41,2.09,2,3.22.59,1.12,1.42,2.25,2.64,2.59.21.06.45.1.6.28.25.31-.02.8-.4.92-.38.12-.78-.02-1.15-.16.52.8,1.34,1.4,2.25,1.67-.32.89-1.47,1.38-2.33.98.18,1.51.35,3.03.15,4.54-.2,1.5-.81,3.01-1.97,3.98-1.28,1.07-3.2,1.52-3.89,3.05"/><g><path class="cls-6" d="m206.55,240.06l20.17,2.27-.09-17.43s1.41-.12,2.44-7.57c1.03-7.45,2.96-20.08,2.96-20.08h0c-8.17-4.8-18.3-4.8-26.47,0l-1.21.71,2.19,42.1Z"/><path class="cls-6" d="m205.54,207.43c-.12-.07-4.94-2.16-5.41,2.96-.48,5.12,4.76,4.54,4.78,4.4.02-.15.63-7.36.63-7.36Z"/><path class="cls-6" d="m229.63,209.38c.13-.04,4.84-.69,4.03,4.39-.8,5.08-5.74,3.23-5.72,3.08.01-.15,1.69-7.46,1.69-7.46Z"/><path class="cls-13" d="m203.96,206.65c.22,4.37-.21,6.6.14,9.54.55,4.66,2.36,8.4,6.14,11.17,3.79,2.77,9.3,3.42,13.18.79,2.69-1.83,4.72-4.02,5.48-7.18.76-3.16,2.47-9.07,2.89-12.3.77-5.82,1.23-11.07,1.23-11.07l-16.26-5.1-10.18,4.44-2.63,9.71Z"/><path class="cls-13" d="m218.34,231c.01.12-1.34.28-2.95-.11-1.61-.38-2.74-1.13-2.68-1.24.06-.12,1.25.42,2.79.78,1.54.37,2.84.43,2.84.57Z"/><g><path class="cls-13" d="m203.85,214.02c.06-4.44.38-9.49.27-14.19-.04-1.77-.34-4.34.03-6.07.37-1.73.79-1.14,1.76-2.62,1.22-1.86,5.08-2.72,7.3-2.88,2.22-.16,2.72-2,4.2-.34,1.44-1.66,3.93-2.3,6-1.55,2.06.76,3.55,2.87,3.57,5.06,1.32-.98,3.3-.94,4.59.08,1.29,1.02,1.77,2.94,1.12,4.46,1.17.35,2.14,1.31,2.48,2.48.35,1.17.07,2.51-.72,3.44-.92,1.09-2.39,1.57-3.38,2.59-1.14,1.18-1.49,3.06-.83,4.57"/><path class="cls-5" d="m225.4,215.8c.11-.01.08,2.13-1.14,4.41-1.2,2.29-2.95,3.52-3.01,3.42-.1-.11,1.45-1.45,2.59-3.64,1.17-2.18,1.41-4.21,1.55-4.19Z"/><path class="cls-5" d="m228.11,212.36c.11-.04.53,1.86-.18,4.08-.69,2.23-2.12,3.54-2.19,3.45-.11-.09,1.09-1.48,1.74-3.59.68-2.1.49-3.93.63-3.94Z"/></g></g><path class="cls-13" d="m209.37,192.1c1.52-1.83,3.47-3.39,5.77-3.99,2.3-.6,4.98-.08,6.58,1.68"/><path class="cls-5" d="m208.37,203.44c.08-.01.07-.6.03-1.53-.04-.93-.13-2.21.06-3.58.18-1.37.68-2.54,1.19-3.29.5-.75.96-1.12.9-1.19-.03-.06-.6.19-1.24.94-.64.73-1.24,1.99-1.44,3.46-.19,1.46-.04,2.78.11,3.71.16.93.31,1.49.39,1.48Z"/><path class="cls-5" d="m211.6,205.56c.16-.06-.13-1.12-.37-2.44-.25-1.32-.36-2.41-.53-2.41-.16,0-.32,1.14-.06,2.52.25,1.38.81,2.39.95,2.33Z"/><path class="cls-5" d="m227.74,206.26s.7-.5,1.37-1.68c.67-1.16,1.3-3.02,1.15-5.11-.15-2.09-1.04-3.84-1.87-4.9-.84-1.07-1.56-1.52-1.6-1.46-.07.07.55.63,1.26,1.71.71,1.07,1.48,2.74,1.62,4.69.14,1.96-.38,3.72-.93,4.88-.55,1.17-1.08,1.81-1,1.87Z"/><path class="cls-5" d="m211.94,185c.04.08.68-.16,1.73-.48,1.04-.31,2.52-.7,4.14-.48,1.62.19,2.86,1.11,3.44,1.99.61.87.65,1.59.75,1.57.06.01.18-.76-.39-1.79-.29-.51-.74-1.05-1.39-1.49-.64-.44-1.46-.74-2.33-.86-1.77-.24-3.33.26-4.36.67-1.04.44-1.62.81-1.59.88Z"/><path class="cls-5" d="m234.09,192.58c.07-.02.02-.6-.42-1.42-.43-.81-1.33-1.84-2.66-2.42-1.34-.57-2.7-.52-3.59-.28-.9.24-1.36.61-1.33.67.04.09.55-.13,1.41-.26.85-.13,2.07-.1,3.27.41,1.19.52,2.05,1.39,2.54,2.1.5.71.69,1.23.78,1.2Z"/><path class="cls-5" d="m226.25,210.64c.03-.07-.79-.4-2.05-1.17-1.26-.77-2.97-2.03-4.51-3.95l-.85-1.06.37,1.31c.22.78.37,1.63.42,2.51.03.43.03.97-.14,1.02-.13.12-.56-.17-.9-.49-1.25-1.04-2.26-2.25-3.04-3.46l-.75-1.17.24,1.37c.24,1.37.46,2.64.67,3.79l.41-.18c-2.06-2.5-2.62-4.57-2.74-4.51-.04.01.06.53.41,1.4.35.87.95,2.1,1.97,3.41l.55.7-.13-.88c-.17-1.16-.37-2.44-.57-3.81l-.51.19c.79,1.27,1.84,2.53,3.13,3.61.19.15.36.32.61.46.22.13.6.28.97.08.36-.22.42-.59.44-.84.01-.27,0-.49-.01-.73-.05-.93-.22-1.82-.47-2.64l-.48.25c1.62,1.95,3.43,3.19,4.77,3.89,1.34.7,2.2.93,2.22.88Z"/><path class="cls-13" d="m218.99,189.75c.4-.58,1.07-.93,1.76-1.04.69-.11,1.41,0,2.08.21,1.64.51,3.09,1.61,4.02,3.06.21.33.38.82.08,1.07-.16.13-.39.13-.6.12-2.53-.11-5.05-.51-7.49-1.21"/></g><path class="cls-8" d="m201.62,241.06s-20.9,5.33-24.38,10.86c-3.48,5.53-5.53,18.23-5.53,20.49s-.41,27.86,3.89,36.26c4.3,8.4,77.03,5.94,77.03,5.94,0,0,5.53-2.87,6.97-11.47,1.43-8.6-1.23-37.28-2.66-43.63-1.43-6.35-2.66-4.51-9.42-8.6-6.76-4.1-17.21-8.4-17.21-8.4l-3.69-6.97s-11.68-6.35-20.9-1.02l-4.1,6.56Z"/><path d="m246.8,267.91c.14,0,.19,5.57.09,12.43-.09,6.86-.28,12.42-.43,12.42-.14,0-.19-5.57-.09-12.43.09-6.86.28-12.42.43-12.42Z"/><path d="m182.42,263.74s.04.37.01,1.04c-.03.78-.07,1.72-.12,2.82-.1,2.38-.2,5.67-.18,9.31.03,3.64.18,6.92.32,9.3.06,1.1.12,2.04.16,2.82.03.67.04,1.04,0,1.04-.04,0-.11-.36-.2-1.02-.1-.66-.21-1.62-.33-2.81-.23-2.38-.44-5.68-.47-9.33-.03-3.65.13-6.95.33-9.33.1-1.19.2-2.15.29-2.82.09-.66.15-1.03.19-1.02Z"/><path d="m239.48,253.33s-.18,0-.53-.02c-.4-.05-.9-.1-1.5-.17-1.38-.16-3.24-.37-5.5-.63-4.65-.51-11.09-1.06-18.22-1.31-7.13-.24-13.6-.13-18.27.05-2.28.1-4.15.19-5.53.25-.61.03-1.1.05-1.51.06-.34,0-.53,0-.53-.01,0-.02.18-.05.52-.09.4-.04.9-.1,1.5-.16,1.3-.13,3.19-.28,5.53-.42,4.68-.28,11.16-.45,18.31-.2,7.15.25,13.6.87,18.25,1.47,2.32.3,4.2.58,5.49.8.6.11,1.09.19,1.49.26.34.07.52.11.51.13Z"/><path d="m229.15,242.33c-.02.08-1.55-.22-4.05-.59-2.5-.37-5.96-.77-9.81-.92-3.85-.14-7.34,0-9.85.17-2.52.18-4.07.36-4.09.28,0-.04.38-.12,1.08-.24.7-.13,1.71-.27,2.98-.4,2.52-.28,6.03-.47,9.91-.33,3.87.15,7.36.61,9.85,1.07,1.25.23,2.25.45,2.94.63.69.17,1.06.29,1.06.32Z"/><g class="cls-11"><path d="m251.38,288.71c-1.95-1.14-4.3-1.34-6.56-1.5-13.11-.91-26.26-1.19-39.4-1.48-7.55-.16-15.13-.33-22.63.56-2.36.28-4.85.73-6.6,2.33-2.36,2.15-2.68,5.75-2.31,8.92.37,3.17,1.28,6.36.78,9.51l78.84,7.45c-.11-4.59,1.64-9.01,2.24-13.57.6-4.55-.39-9.92-4.36-12.24Z"/></g></g><g><path class="cls-5" d="m188.67,351.69c-7.21,0-13.17-5.71-13.36-12.92-.37-13.53-.38-34.48-.36-43.56,0-2.46,2-4.45,4.47-4.45h69.5c2.51,0,4.52,2.06,4.46,4.57-.23,9.43-.76,31.3-1.09,44.86-.16,6.4-5.39,11.5-11.8,11.5h-51.82Z"/><g><path class="cls-8" d="m172.87,425.78l-3.97-.48,8.18-66.95c.47-3.93,3.76-6.89,7.65-6.89h58.61c3.88,0,7.16,2.95,7.65,6.87,1.96,15.83,7.42,66.49,7.47,67l-3.98.43c-.06-.51-5.51-51.14-7.47-66.94-.24-1.91-1.82-3.36-3.68-3.36h-58.61c-1.87,0-3.45,1.45-3.68,3.37l-8.18,66.95Z"/><path class="cls-13" d="m172.87,425.78s.03-.36.11-1.06c.08-.7.2-1.72.36-3.06.32-2.69.79-6.65,1.39-11.75,1.22-10.19,2.99-24.93,5.18-43.2.28-2.28.56-4.62.85-7.01.08-.58.1-1.21.33-1.83.21-.6.59-1.15,1.06-1.59.48-.43,1.07-.76,1.71-.91.65-.17,1.3-.09,1.92-.11,5.03,0,10.27,0,15.7-.02,10.86,0,22.48-.02,34.72-.02,1.53,0,3.07,0,4.62,0,.77,0,1.55,0,2.33,0,.81-.04,1.67.2,2.35.67.7.46,1.23,1.16,1.52,1.94.31.81.28,1.61.4,2.39.18,1.58.35,3.16.53,4.76.71,6.38,1.44,12.9,2.19,19.54,1.48,13.29,3.02,27.06,4.6,41.2l-.29-.23c1.25-.13,2.61-.28,3.98-.43l-.23.29c-.2-1.83-.42-3.8-.64-5.78-1.45-13-2.87-25.74-4.25-38.1-.69-6.18-1.36-12.27-2.03-18.25-.17-1.5-.33-2.98-.5-4.47-.12-1.46-.62-2.85-1.48-4-.84-1.16-2.02-2.05-3.34-2.57-.66-.25-1.36-.4-2.06-.46-.69-.05-1.44-.02-2.16-.03-11.59,0-22.7-.01-33.24-.02-5.27,0-10.39,0-15.36-.01-2.48,0-4.93,0-7.34,0-.6,0-1.2,0-1.78.03-.57.07-1.15.17-1.69.37-1.09.36-2.08,1-2.88,1.8-.81.79-1.41,1.77-1.79,2.82-.4,1.04-.45,2.16-.61,3.28-.27,2.22-.54,4.4-.81,6.53-.53,4.26-1.03,8.34-1.51,12.24-.96,7.78-1.83,14.79-2.6,20.94-1.54,12.27-2.64,21.07-3.22,25.65l-.04-.05c1.34.18,2.32.31,2.99.39.65.09.98.14.98.14,0,0-.3-.03-.96-.1-.67-.08-1.66-.19-3.02-.34h-.05s0-.05,0-.05c.54-4.58,1.59-13.39,3.05-25.67.74-6.15,1.59-13.16,2.52-20.94.47-3.89.96-7.98,1.48-12.24.26-2.13.52-4.31.79-6.53.15-1.1.2-2.26.62-3.36.39-1.1,1.02-2.13,1.87-2.97.84-.84,1.87-1.51,3.03-1.9.57-.21,1.18-.32,1.78-.39.62-.04,1.21-.04,1.81-.04,2.41,0,4.85,0,7.34,0,4.97,0,10.1,0,15.36-.01,10.54,0,21.65-.01,33.24-.02.73,0,1.43-.02,2.2.03.75.07,1.49.22,2.2.49,1.41.55,2.66,1.5,3.56,2.73.91,1.22,1.45,2.73,1.58,4.24.17,1.48.33,2.97.5,4.47.67,5.98,1.35,12.07,2.04,18.25,1.38,12.36,2.8,25.09,4.25,38.1.22,1.98.44,3.95.64,5.78l.03.26-.26.03c-1.36.15-2.72.29-3.98.43l-.26.03-.03-.26c-1.57-14.14-3.11-27.92-4.59-41.2-.74-6.64-1.46-13.16-2.17-19.54-.18-1.59-.35-3.18-.53-4.76-.11-.78-.1-1.6-.37-2.28-.26-.69-.73-1.31-1.34-1.71-.61-.42-1.33-.62-2.08-.59-.78,0-1.56,0-2.33,0-1.55,0-3.09,0-4.62,0-12.24,0-23.86-.02-34.72-.02-5.43,0-10.67-.01-15.7-.01-.63.02-1.26-.05-1.82.1-.58.13-1.1.43-1.54.82-.42.4-.77.89-.96,1.44-.21.53-.23,1.14-.32,1.74-.3,2.4-.59,4.74-.87,7.03-2.28,18.29-4.12,33.06-5.39,43.26-.64,5.07-1.14,9.01-1.47,11.69-.17,1.32-.3,2.33-.39,3.03-.09.68-.14,1.02-.14,1.02Z"/></g><path class="cls-13" d="m245.31,339.57s.02.1.03.3c-.01.2.08.5-.05.88-.1.78-.72,1.88-1.95,2.73-2.45,1.74-6.7,2.82-11.9,3.49-10.46,1.29-25.06,1.13-41.04-.38-1.99-.22-4.03-.55-5.79-1.57-1.78-1-2.95-2.81-3.49-4.64-.58-1.85-.74-3.73-.93-5.53-.17-1.81-.33-3.59-.49-5.32-.59-6.93-.94-13.18-1.13-18.43-.2-5.25-.24-9.51-.24-12.45,0-1.47.01-2.61.03-3.38,0-.36.02-.65.02-.88,0-.2.02-.3.03-.3s.02.1.03.3c0,.23.02.52.03.88.02.81.04,1.94.07,3.38.06,2.94.16,7.19.41,12.43.24,5.25.62,11.49,1.24,18.41.17,1.73.34,3.5.51,5.31.19,1.81.35,3.66.92,5.43.53,1.77,1.61,3.42,3.27,4.35,1.64.95,3.62,1.29,5.59,1.5,15.94,1.5,30.52,1.73,40.94.53,5.19-.62,9.41-1.64,11.83-3.29,1.22-.81,1.84-1.83,1.97-2.58.14-.36.07-.66.1-.86,0-.2.02-.3.03-.3Z"/></g></g></g><g id="Character_1"><g><g><path class="cls-7" d="m126.56,272.78c0,.6,5.64,22.35,5.64,29.4s-6.64,12.89-6.64,12.89l-7.25-15.7-3.02-19.53,11.27-7.05Z"/><path class="cls-7" d="m57.63,270.69c-.06.62,1.18,27.66,1.18,27.66l10.87-1.01-2.42-18.12-9.63-8.53Z"/><path class="cls-10" d="m72.5,248.02c-.12.06-.45.17-.95.34-2.99,1.02-13.02,4.43-14.26,13.2l-1.37,12.47,11.35,5.19,1.41,13.89,49.13,1.01-1.21-11.68,16.68-3.67s-3.14-15.06-9.24-23.12c-1.96-2.59-4.84-4.35-8.03-4.98l-25.38-5.08-18.12,2.42Z"/><g><path class="cls-13" d="m96.36,198.55c-3.53-.56-7.17.92-9.81,3.26-2.63,2.34-4.39,5.45-5.8,8.63-2.75,6.19-4.35,12.78-5.93,19.34-2.34,9.66-4.68,19.38-5.3,29.28-.62,9.9,2.45,15.75,6.87,24.71l15.64-2.09-.03-2.86,2.12,2.86,6.07-.91s1.82-15.33,1.82-15.29,2.9,14.6,2.9,14.6l5.06-.45c5.03-19.27-.66-31.95,2.2-51.63.68-4.68,1.76-9.34,1.74-14.06-.02-4.73-1.28-9.67-4.66-13.09-3.38-3.42-9.2-4.82-13.35-2.31"/><path class="cls-5" d="m100.2,280.77s-.03-.07-.06-.22c-.03-.16-.08-.38-.13-.65-.11-.6-.27-1.44-.46-2.52-.38-2.19-.92-5.36-1.4-9.3-.48-3.94-.89-8.67-.79-13.92.06-2.63.25-5.38.64-8.22.4-2.84,1.02-5.74,1.84-8.67,1.73-5.84,4.14-11.15,5.32-16.26.6-2.55.94-5.02.93-7.34,0-2.32-.36-4.48-1-6.35-.64-1.87-1.54-3.45-2.5-4.72-.96-1.26-1.99-2.2-2.89-2.87-.9-.69-1.7-1.07-2.23-1.35-.26-.11-.47-.21-.62-.28-.14-.06-.21-.1-.21-.1s.08.02.22.07c.16.06.37.14.64.25.54.25,1.36.63,2.28,1.3.93.66,1.98,1.6,2.97,2.87.98,1.27,1.91,2.86,2.57,4.76.67,1.89,1.04,4.08,1.06,6.42.02,2.35-.3,4.85-.9,7.42-1.17,5.16-3.58,10.48-5.3,16.29-.81,2.91-1.44,5.8-1.84,8.62-.39,2.82-.58,5.57-.65,8.18-.12,5.24.26,9.95.71,13.89.45,3.94.94,7.12,1.28,9.31.17,1.08.3,1.93.4,2.53.04.27.07.49.1.66.02.15.03.23.02.23Z"/><path class="cls-5" d="m78.19,270.73s-.02-.06-.03-.18c-.02-.14-.04-.32-.07-.54-.05-.5-.13-1.2-.22-2.08-.05-.45-.1-.96-.15-1.5-.05-.55-.07-1.15-.11-1.79-.07-1.29-.19-2.75-.2-4.38-.01-.81-.03-1.66-.05-2.55-.01-.89.03-1.81.04-2.76,0-1.91.16-3.95.29-6.09.35-4.28.94-8.98,1.9-13.85.99-4.87,2.24-9.44,3.57-13.55.7-2.04,1.35-3.98,2.07-5.76.35-.89.67-1.76,1.02-2.58.36-.82.7-1.6,1.02-2.35.63-1.51,1.31-2.82,1.87-4,.29-.58.54-1.13.8-1.62.26-.49.5-.94.72-1.34.43-.79.77-1.4,1.01-1.85.11-.2.2-.35.27-.48.06-.11.1-.16.1-.16,0,0-.02.06-.07.17-.06.13-.14.29-.24.49-.23.45-.55,1.08-.95,1.88-.21.41-.44.86-.69,1.35-.24.5-.49,1.05-.77,1.63-.54,1.18-1.2,2.5-1.81,4.01-.32.75-.65,1.54-1,2.35-.34.82-.65,1.69-1,2.58-.71,1.78-1.34,3.72-2.04,5.76-1.3,4.1-2.54,8.66-3.53,13.52-.95,4.86-1.55,9.54-1.92,13.81-.14,2.14-.3,4.17-.32,6.08-.02.95-.07,1.87-.06,2.76,0,.88.02,1.73.02,2.54-.01,1.62.09,3.09.14,4.37.03.64.06,1.24.09,1.79.04.55.09,1.05.12,1.5.07.89.12,1.58.16,2.08.01.22.02.4.03.54,0,.12,0,.19,0,.19Z"/><path class="cls-5" d="m86.87,282.37s-.03-.06-.07-.18c-.05-.14-.11-.32-.18-.54-.16-.5-.38-1.21-.66-2.1-.14-.46-.3-.97-.47-1.52-.17-.56-.3-1.17-.47-1.83-.31-1.32-.75-2.8-1.04-4.49-.16-.84-.33-1.72-.51-2.63-.19-.91-.28-1.88-.43-2.87-.12-.99-.32-2.02-.39-3.08-.09-1.06-.19-2.16-.29-3.28-.29-4.5-.31-9.46.11-14.65.45-5.19,1.3-10.08,2.27-14.48.26-1.1.52-2.17.77-3.21.25-1.04.56-2.03.83-3,.52-1.94,1.12-3.71,1.66-5.34.51-1.63,1.09-3.07,1.55-4.34.46-1.28.91-2.36,1.28-3.24.36-.86.65-1.54.86-2.03.09-.22.17-.39.23-.52.05-.12.08-.18.09-.17,0,0-.01.07-.06.19-.05.14-.12.32-.2.54-.19.49-.46,1.18-.79,2.05-.35.89-.78,1.97-1.22,3.26-.44,1.28-1.01,2.72-1.5,4.35-.52,1.62-1.1,3.4-1.61,5.34-.26.97-.57,1.96-.81,3-.25,1.04-.5,2.11-.76,3.2-.95,4.4-1.79,9.28-2.24,14.45-.42,5.17-.4,10.11-.14,14.6.09,1.12.18,2.21.27,3.27.07,1.06.26,2.08.37,3.07.15.99.23,1.95.41,2.86.17.91.33,1.79.48,2.63.27,1.68.69,3.17.98,4.49.16.66.28,1.27.44,1.83.16.56.31,1.06.44,1.52.25.9.45,1.61.59,2.11.06.23.11.41.15.55.03.13.04.19.04.19Z"/><path class="cls-5" d="m108.84,273.06s-.04-.06-.11-.19c-.07-.15-.17-.33-.28-.57-.13-.26-.28-.57-.45-.93-.16-.38-.35-.81-.56-1.3-.8-1.96-1.88-4.86-2.62-8.57-.77-3.7-1.2-8.23-.8-13.22.2-2.49.62-5.1,1.28-7.74.65-2.65,1.51-5.34,2.39-8.09.87-2.75,1.71-5.44,2.32-8.08.61-2.64,1.01-5.23,1.08-7.71.08-2.48-.17-4.84-.74-6.98-.56-2.14-1.48-4.01-2.55-5.58-2.15-3.15-4.88-4.91-6.85-5.74-1.01-.4-1.82-.62-2.38-.74-.27-.05-.48-.09-.64-.13-.14-.03-.22-.05-.22-.05,0,0,.08,0,.22.02.17.02.38.05.65.09.57.09,1.4.3,2.42.68,2.01.8,4.8,2.55,7.01,5.72,1.1,1.57,2.05,3.47,2.63,5.64.59,2.16.86,4.55.79,7.06-.06,2.51-.46,5.12-1.06,7.78-.61,2.66-1.45,5.36-2.32,8.11-.87,2.75-1.73,5.43-2.39,8.07-.66,2.63-1.08,5.21-1.29,7.69-.41,4.96,0,9.46.72,13.15.7,3.7,1.74,6.6,2.5,8.57.2.49.37.92.53,1.3.16.37.3.68.42.94.1.24.19.43.25.58.05.13.08.2.07.2Z"/></g><path d="m64.94,263.95c.07,0,.27,1.12.55,2.95.31,1.99.68,4.44,1.1,7.15.43,2.71.82,5.16,1.13,7.15.29,1.83.45,2.97.37,2.98-.07.01-.36-1.1-.74-2.91-.38-1.82-.85-4.34-1.29-7.13-.44-2.8-.76-5.34-.95-7.18-.19-1.85-.26-2.99-.19-3Z"/><path d="m117.58,267.77c.14,0-.01,4.16-.35,9.28-.34,5.12-.73,9.26-.87,9.25-.14,0,.01-4.16.35-9.28.34-5.12.73-9.25.87-9.25Z"/></g><g><path class="cls-7" d="m111.03,383.32l-5.63-17.93s13.03-3.95,12.94-3.92c-.09.03,4.27,22.49,4.27,22.49l-6.29,2.54-5.3-3.18Z"/><path class="cls-5" d="m135.22,385.59l-4.69-1.58-8.55-3.3-11.55,1.21,1.73,10.4,9.64-.78,16.38-1.02-.33-1.4c-.35-1.5-1.31-2.78-2.64-3.52Z"/><path class="cls-13" d="m123.63,390.65c-.14.02-.63-2.19-1.09-4.94-.46-2.74-.72-5.03-.56-5.01.13-.07.62,2.18,1.08,4.92.46,2.75.72,5,.57,5.03Z"/><polygon class="cls-8" points="112.17 392.31 111.87 390.54 137.76 388.69 138.19 390.51 112.17 392.31"/><polygon class="cls-7" points="77.13 411.19 77.13 393.91 91.43 393.01 90.53 411.61 83.74 414.27 77.13 411.19"/><path class="cls-5" d="m82.82,411.5l-5.69-.31s-8.76,7.09-9.6,10.98c-.3,1.39,0,2.98,0,2.98l13.3.39c2.68,0,9.7.01,9.7.01v-13.92l-7.71-.12Z"/><path class="cls-13" d="m95.77,351.38c.28.68,4.06,20.17,4.06,20.17l23.12-5.21-2.98-13.19-24.2-1.77Z"/><path class="cls-13" d="m71.9,353.35v40.33l22.69.97.99-41.3h-23.68Z"/><rect class="cls-8" x="67.41" y="423.12" width="23.12" height="2.41"/><path class="cls-13" d="m78.25,412.27c.15.04-.46,2.42-.94,5.39-.49,2.97-.67,5.42-.82,5.41-.14,0-.19-2.48.3-5.5.49-3.01,1.33-5.35,1.46-5.31Z"/><path class="cls-13" d="m89.55,422.37c-.09.03-.27-.97-1.21-2.19-.47-.6-1.14-1.24-2.03-1.71-.88-.47-1.98-.74-3.13-.69-1.15.06-2.23.42-3.05.98-.84.55-1.44,1.25-1.86,1.89-.82,1.31-.9,2.32-.99,2.29-.03,0-.05-.25.03-.7.07-.44.26-1.08.65-1.79.4-.7,1.01-1.48,1.9-2.1.88-.63,2.05-1.04,3.3-1.1,1.25-.06,2.45.25,3.39.79.95.53,1.63,1.25,2.09,1.91.46.67.7,1.28.81,1.72.12.43.12.68.09.69Z"/></g><g><path class="cls-5" d="m68.84,351.69c-7.21,0-13.17-5.71-13.36-12.92-.37-13.53-.38-34.48-.36-43.56,0-2.46,2-4.45,4.47-4.45h69.5c2.51,0,4.52,2.06,4.46,4.57-.23,9.43-.76,31.3-1.09,44.86-.16,6.4-5.39,11.5-11.8,11.5h-51.82Z"/><g><path class="cls-8" d="m53.03,425.78l-3.97-.48,8.18-66.95c.47-3.93,3.76-6.89,7.65-6.89h58.61c3.88,0,7.16,2.95,7.65,6.87,1.96,15.83,7.42,66.49,7.47,67l-3.98.43c-.06-.51-5.51-51.14-7.47-66.94-.24-1.91-1.82-3.36-3.68-3.36h-58.61c-1.87,0-3.45,1.45-3.68,3.37l-8.18,66.95Z"/><path class="cls-13" d="m53.03,425.78s.03-.36.11-1.06c.08-.7.2-1.72.36-3.06.32-2.69.79-6.65,1.39-11.75,1.22-10.19,2.99-24.93,5.18-43.2.28-2.28.56-4.62.85-7.01.08-.58.1-1.21.33-1.83.21-.6.59-1.15,1.06-1.59.48-.43,1.07-.76,1.71-.91.65-.17,1.3-.09,1.92-.11,5.03,0,10.27,0,15.7-.02,10.86,0,22.48-.02,34.72-.02,1.53,0,3.07,0,4.62,0,.78,0,1.55,0,2.33,0,.81-.04,1.67.2,2.35.67.7.46,1.23,1.16,1.52,1.94.31.81.28,1.61.4,2.39.18,1.58.35,3.16.53,4.76.71,6.38,1.44,12.9,2.19,19.54,1.48,13.29,3.02,27.06,4.6,41.2l-.29-.23c1.25-.13,2.61-.28,3.98-.43l-.23.29c-.2-1.83-.42-3.8-.64-5.78-1.45-13-2.87-25.74-4.25-38.1-.69-6.18-1.36-12.27-2.03-18.25-.17-1.5-.33-2.98-.5-4.47-.12-1.46-.62-2.85-1.48-4-.84-1.16-2.02-2.05-3.34-2.57-.66-.25-1.36-.4-2.06-.46-.69-.05-1.44-.02-2.16-.03-11.59,0-22.7-.01-33.24-.02-5.27,0-10.39,0-15.36-.01-2.48,0-4.93,0-7.34,0-.6,0-1.2,0-1.78.03-.57.07-1.15.17-1.69.37-1.09.36-2.08,1-2.88,1.8-.81.79-1.41,1.77-1.79,2.82-.4,1.04-.45,2.16-.61,3.28-.27,2.22-.54,4.4-.81,6.53-.53,4.26-1.03,8.34-1.51,12.24-.96,7.78-1.83,14.79-2.6,20.94-1.54,12.27-2.64,21.07-3.22,25.65l-.04-.05c1.34.18,2.32.31,2.99.39.65.09.98.14.98.14,0,0-.3-.03-.96-.1-.67-.08-1.66-.19-3.02-.34h-.05s0-.05,0-.05c.54-4.58,1.59-13.39,3.05-25.67.74-6.15,1.59-13.16,2.52-20.94.47-3.89.96-7.98,1.48-12.24.26-2.13.52-4.31.79-6.53.15-1.1.2-2.26.62-3.36.39-1.1,1.02-2.13,1.87-2.97.84-.84,1.87-1.51,3.03-1.9.57-.21,1.18-.32,1.78-.39.62-.04,1.21-.04,1.81-.04,2.41,0,4.85,0,7.34,0,4.97,0,10.1,0,15.36-.01,10.54,0,21.65-.01,33.24-.02.73,0,1.43-.02,2.2.03.75.07,1.49.22,2.2.49,1.41.55,2.66,1.5,3.56,2.73.91,1.22,1.45,2.73,1.58,4.24.17,1.48.33,2.97.5,4.47.67,5.98,1.35,12.07,2.04,18.25,1.38,12.36,2.8,25.09,4.25,38.1.22,1.98.44,3.95.64,5.78l.03.26-.26.03c-1.36.15-2.72.29-3.98.43l-.26.03-.03-.26c-1.57-14.14-3.11-27.92-4.59-41.2-.74-6.64-1.46-13.16-2.17-19.54-.18-1.59-.35-3.18-.53-4.76-.11-.78-.1-1.6-.37-2.28-.26-.69-.73-1.31-1.34-1.71-.61-.42-1.33-.62-2.08-.59-.78,0-1.56,0-2.33,0-1.55,0-3.09,0-4.62,0-12.24,0-23.86-.02-34.72-.02-5.43,0-10.67-.01-15.7-.01-.63.02-1.26-.05-1.82.1-.58.13-1.1.43-1.54.82-.42.4-.77.89-.96,1.44-.21.53-.23,1.14-.32,1.74-.3,2.4-.59,4.74-.87,7.03-2.28,18.29-4.12,33.06-5.39,43.26-.64,5.07-1.14,9.01-1.47,11.69-.17,1.32-.3,2.33-.39,3.03-.09.68-.14,1.02-.14,1.02Z"/></g><path class="cls-13" d="m125.48,339.57s.02.1.03.3c-.01.2.08.5-.05.88-.1.78-.72,1.88-1.95,2.73-2.45,1.74-6.7,2.82-11.9,3.49-10.46,1.29-25.06,1.13-41.04-.38-1.99-.22-4.03-.55-5.79-1.57-1.79-1-2.95-2.81-3.49-4.64-.58-1.85-.74-3.73-.93-5.53-.17-1.81-.33-3.59-.49-5.32-.59-6.93-.94-13.18-1.13-18.43-.2-5.25-.24-9.51-.24-12.45,0-1.47.01-2.61.03-3.38,0-.36.02-.65.02-.88,0-.2.02-.3.03-.3s.02.1.03.3c0,.23.02.52.03.88.02.81.04,1.94.07,3.38.06,2.94.16,7.19.41,12.43.24,5.25.62,11.49,1.24,18.41.17,1.73.34,3.5.51,5.31.19,1.81.36,3.66.92,5.43.53,1.77,1.61,3.42,3.27,4.35,1.64.95,3.62,1.29,5.59,1.5,15.94,1.5,30.52,1.73,40.94.53,5.19-.62,9.41-1.64,11.83-3.29,1.22-.81,1.84-1.83,1.97-2.58.14-.36.07-.66.1-.86,0-.2.02-.3.03-.3Z"/></g></g></g></svg>