<?xml version="1.0" encoding="UTF-8"?>
<svg id="Layer_2" data-name="Layer 2" xmlns="http://www.w3.org/2000/svg" viewBox="0 0 1880.43 1881.53">
  <defs>
    <style>
      .cls-1 {
        fill: #fff;
      }

      .cls-2 {
        fill: #285975;
      }

      .cls-3 {
        fill: #316b93;
      }
    </style>
  </defs>
  <g id="Layer_1-2" data-name="Layer 1">
    <g>
      <circle class="cls-2" cx="961.09" cy="962.2" r="919.33"/>
      <circle class="cls-3" cx="922.06" cy="922.06" r="922.06"/>
      <g>
        <path class="cls-1" d="m903.22,1517.36c-113.41,0-223.34-32.63-317.9-94.35-92.12-60.13-165.12-144.58-211.1-244.21-7.86-17.02-2.87-36.77,12.14-48.02,15.01-11.26,35.38-10.53,49.53,1.78,73.62,64.04,162.05,97.88,255.74,97.88,110.42,0,214.38-47.65,292.71-134.16,78.96-87.2,122.44-203.31,122.44-326.93s-49.55-253.93-135.95-341.19c-12.11-12.23-14.87-30.68-6.87-45.93,8.04-15.32,24.88-23.57,41.89-20.54h0c132.92,23.65,254.41,93.74,342.1,197.37,43.54,51.45,77.51,109.42,100.99,172.29,24.3,65.07,36.62,133.6,36.62,203.67,0,78.61-15.4,154.88-45.77,226.69-29.33,69.35-71.32,131.62-124.79,185.1-53.47,53.47-115.75,95.46-185.1,124.79-71.81,30.37-148.07,45.77-226.68,45.77Zm-462.68-318.12c94.2,164.5,271.08,268.49,462.68,268.49,293.74,0,532.72-238.98,532.72-532.72,0-248.04-169.7-461.06-407.82-518.02,36.61,42.13,66.1,90.34,87.86,143.73,26.82,65.78,40.41,135.98,40.41,208.63,0,68.64-12.18,135.26-36.21,198-23.26,60.74-56.59,115.32-99.07,162.23-42.63,47.09-92.34,84.08-147.74,109.96-57.55,26.89-118.71,40.52-181.76,40.52-53.33,0-105.64-9.85-155.46-29.26-33.65-13.11-65.67-30.39-95.62-51.56Z"/>
        <path class="cls-1" d="m652.54,646.42c-3.79,0-7.6-.96-11.09-2.9-7.8-4.32-12.29-12.53-11.73-21.43l3.33-52.53-42.4-31.2c-7.18-5.28-10.58-14-8.89-22.75,1.7-8.75,8.12-15.56,16.75-17.77l50.99-13.06,16.57-49.96c2.81-8.46,10.05-14.39,18.89-15.48,8.84-1.09,17.31,2.91,22.08,10.44l28.18,44.46,52.64.32c8.91.05,16.79,5.11,20.56,13.18,3.77,8.08,2.58,17.36-3.11,24.23l-33.57,40.54,15.96,50.16c2.7,8.49.33,17.55-6.18,23.63-6.52,6.08-15.72,7.82-24,4.53l-48.93-19.4-42.77,30.68c-3.99,2.87-8.63,4.32-13.29,4.32Zm-24.87-121.89l29.5,21.71c6.29,4.63,9.75,12.05,9.26,19.85l-2.32,36.55,29.76-21.35c6.35-4.55,14.47-5.55,21.73-2.67l34.04,13.5-11.11-34.9c-2.37-7.44-.81-15.48,4.17-21.5l23.36-28.21-36.62-.22c-7.81-.05-14.97-4.01-19.15-10.61l-19.61-30.93-11.53,34.76c-2.46,7.42-8.45,13-16.01,14.94l-35.48,9.09Z"/>
        <path class="cls-1" d="m720.43,1037.07c-4.96,0-9.84-1.76-13.8-5.16l-32.32-27.75-40.81,12.2c-7.95,2.38-16.34.02-21.9-6.15-5.55-6.17-7.02-14.76-3.82-22.42l16.4-39.32-24.21-35.05c-4.72-6.83-5.07-15.54-.92-22.73,4.15-7.19,11.86-11.24,20.14-10.56l42.46,3.45,25.85-33.86c5.04-6.6,13.21-9.62,21.33-7.9,8.12,1.73,14.35,7.82,16.27,15.89l9.84,41.45,40.19,14.12c7.83,2.75,13.24,9.59,14.1,17.85.87,8.25-3,16.07-10.09,20.38l-36.38,22.17-1.01,42.59c-.2,8.3-5.03,15.55-12.61,18.93-2.81,1.25-5.77,1.87-8.7,1.87Zm-43.54-66.2c5.01,0,9.9,1.78,13.82,5.14l19.53,16.77.61-25.74c.18-7.28,3.99-13.88,10.2-17.66l21.98-13.4-24.29-8.54c-6.86-2.41-11.96-8.07-13.64-15.15l-5.95-25.05-15.62,20.46c-4.42,5.78-11.37,8.89-18.63,8.29l-25.66-2.09,14.63,21.18c4.14,5.99,4.93,13.57,2.13,20.29l-9.91,23.75,24.67-7.37c2.02-.6,4.08-.9,6.12-.9Z"/>
      </g>
    </g>
  </g>
</svg>