<?xml version="1.0" encoding="UTF-8"?>
<svg id="Layer_2" data-name="Layer 2" xmlns="http://www.w3.org/2000/svg" viewBox="0 0 1880.43 1881.53">
  <defs>
    <style>
      .cls-1 {
        fill: #fff;
      }

      .cls-2 {
        fill: #f4ad31;
      }

      .cls-3 {
        fill: #ff8b00;
      }
    </style>
  </defs>
  <g id="Layer_1-2" data-name="Layer 1">
    <g>
      <circle class="cls-3" cx="961.09" cy="962.2" r="919.33"/>
      <circle class="cls-2" cx="922.06" cy="922.06" r="922.06"/>
      <g>
        <g>
          <g>
            <path class="cls-1" d="m945.41,521.56c-14.56,0-26.36-11.8-26.36-26.36v-171.87c0-14.56,11.8-26.36,26.36-26.36s26.36,11.8,26.36,26.36v171.87c0,14.56-11.8,26.36-26.36,26.36Z"/>
            <path class="cls-1" d="m945.41,1625.23c-14.56,0-26.36-11.8-26.36-26.36v-162.62c0-14.56,11.8-26.36,26.36-26.36s26.36,11.8,26.36,26.36v162.62c0,14.56-11.8,26.36-26.36,26.36Z"/>
          </g>
          <g>
            <path class="cls-1" d="m1384.95,961.09c0-14.56,11.8-26.36,26.36-26.36h171.87c14.56,0,26.36,11.8,26.36,26.36s-11.8,26.36-26.36,26.36h-171.87c-14.56,0-26.36-11.8-26.36-26.36Z"/>
            <path class="cls-1" d="m281.28,961.09c0-14.56,11.8-26.36,26.36-26.36h162.62c14.56,0,26.36,11.8,26.36,26.36s-11.8,26.36-26.36,26.36h-162.62c-14.56,0-26.36-11.8-26.36-26.36Z"/>
          </g>
        </g>
        <g>
          <g>
            <path class="cls-1" d="m1256.21,650.29c-10.3-10.3-10.3-26.99,0-37.28l121.53-121.53c10.3-10.3,26.99-10.3,37.28,0,10.3,10.3,10.3,26.99,0,37.28l-121.53,121.53c-10.3,10.3-26.99,10.3-37.28,0Z"/>
            <path class="cls-1" d="m475.8,1430.71c-10.3-10.3-10.3-26.99,0-37.28l114.99-114.99c10.3-10.3,26.99-10.3,37.28,0,10.3,10.3,10.3,26.99,0,37.28l-114.99,114.99c-10.29,10.3-26.99,10.3-37.28,0Z"/>
          </g>
          <g>
            <path class="cls-1" d="m1256.21,1271.89c10.3-10.3,26.99-10.3,37.28,0l121.53,121.53c10.3,10.3,10.3,26.99,0,37.28-10.29,10.3-26.99,10.3-37.28,0l-121.53-121.53c-10.3-10.3-10.3-26.99,0-37.28Z"/>
            <path class="cls-1" d="m475.8,491.48c10.3-10.3,26.99-10.29,37.28,0l114.99,114.99c10.3,10.3,10.3,26.99,0,37.28-10.3,10.3-26.99,10.3-37.28,0l-114.99-114.99c-10.3-10.29-10.3-26.99,0-37.28Z"/>
          </g>
        </g>
        <path class="cls-1" d="m945.41,1363.52c-54.32,0-107.02-10.64-156.65-31.63-47.92-20.27-90.96-49.28-127.91-86.23-36.95-36.95-65.96-79.98-86.23-127.91-20.99-49.63-31.63-102.33-31.63-156.65s10.64-107.02,31.63-156.65c20.27-47.92,49.28-90.96,86.23-127.91,36.95-36.95,79.98-65.96,127.91-86.23,49.63-20.99,102.33-31.63,156.65-31.63s107.02,10.64,156.65,31.63c47.92,20.27,90.96,49.28,127.91,86.23,36.95,36.95,65.96,79.98,86.23,127.91,20.99,49.63,31.63,102.33,31.63,156.65s-10.64,107.02-31.63,156.65c-20.27,47.92-49.28,90.96-86.23,127.91-36.95,36.95-79.98,65.96-127.91,86.23-49.63,20.99-102.33,31.63-156.65,31.63Zm0-757.68c-195.89,0-355.25,159.36-355.25,355.25s159.36,355.25,355.25,355.25,355.25-159.36,355.25-355.25-159.36-355.25-355.25-355.25Z"/>
      </g>
    </g>
  </g>
</svg>